<?xml version="1.0" encoding="utf-8"?>
<!-- Generator: Adobe Illustrator 21.1.0, SVG Export Plug-In . SVG Version: 6.00 Build 0)  -->
<svg version="1.1" xmlns="http://www.w3.org/2000/svg" xmlns:xlink="http://www.w3.org/1999/xlink" x="0px" y="0px"
	 viewBox="0 0 512 512" style="enable-background:new 0 0 512 512;" xml:space="preserve">
<style type="text/css">
	.st0{fill:#1B75BC;}
	.st1{fill:#00AEEF;}
	.st2{opacity:0.5;fill:#FFFFFF;}
	.st3{fill:#27AAE1;}
	.st4{fill:#FFFFFF;}
	.st5{stroke:#262262;stroke-miterlimit:10;}
	.st6{fill:#2B3990;}
	.st7{fill:#FFFFFF;stroke:#000000;stroke-miterlimit:10;}
	.st8{stroke:#2B3990;stroke-miterlimit:10;}
	.st9{opacity:0.4;}
	.st10{fill:#FBB040;}
	.st11{fill-opacity:0.1;}
	.st12{fill:#8B5E3C;}
	.st13{opacity:0.53;fill:#FFFFFF;}
	.st14{fill:#F9ED32;}
</style>
<g id="tako">
	<g id="foot-5">
		
			<ellipse transform="matrix(0.9863 -0.1649 0.1649 0.9863 -44.5627 60.8653)" class="st0" cx="344.2" cy="298.8" rx="36.1" ry="36.1"/>
		<path d="M350.3,334.8c-9.4,1.6-19.4-0.3-27.8-5.5c-4.2-2.6-8-6-10.9-10c-3-4.1-5.4-8.8-6.7-13.8c-1.3-5.1-1.7-10.5-0.8-15.9
			c0.9-5.3,2.7-10.6,5.7-15.3c3-4.7,7-8.8,11.7-11.9c4.7-3.1,10.1-5.2,15.7-6.2l4.2-0.5c1.4-0.1,2.8,0,4.2,0
			c1.4,0.1,2.8,0.3,4.2,0.4c1.4,0.2,2.8,0.6,4.1,0.8c5.5,1.4,10.6,4,14.9,7.5c4.3,3.5,7.8,7.9,10.4,12.6c2.5,4.8,3.9,10.1,4.4,15.3
			c0.8,10.5-2.6,20.7-8.9,28.3C368.5,328.2,359.7,333.2,350.3,334.8z M350.1,334c4.6-0.8,9-2.5,13-5c3.9-2.5,7.4-5.8,10.1-9.6
			c2.7-3.8,4.6-8.1,5.7-12.7c1-4.5,1.2-9.3,0.4-13.9c-0.8-4.6-2.5-9-4.9-12.9c-2.5-3.9-5.7-7.4-9.5-10c-3.8-2.7-8.1-4.6-12.6-5.6
			c-4.5-1-9.2-1.1-13.8-0.4c-4.6,0.8-9,2.4-12.9,4.8c-3.9,2.4-7.4,5.7-10.1,9.4c-2.7,3.8-4.7,8.1-5.7,12.6
			c-1.1,4.5-1.2,9.2-0.5,13.8c0.8,4.6,2.4,9,4.9,13c2.4,4,5.7,7.4,9.5,10.1c3.8,2.7,8.1,4.7,12.6,5.8
			C340.8,334.6,345.5,334.7,350.1,334z"/>
	</g>
	<g id="foot-1">
		
			<ellipse transform="matrix(0.9682 -0.2502 0.2502 0.9682 -68.3339 50.8714)" class="st1" cx="165.9" cy="294.2" rx="36.1" ry="36.1"/>
		<path d="M201.2,285.1c2.4,9.2,1.3,19.4-3.2,28c-4.4,8.7-12.4,15.9-22.2,19.3c-4.9,1.7-10.2,2.4-15.5,2c-5.3-0.4-10.6-1.8-15.5-4.4
			c-4.8-2.5-9.2-6.1-12.6-10.4c-3.4-4.3-5.9-9.4-7.3-14.8l-0.8-4.1c-0.2-1.4-0.3-2.8-0.4-4.1c-0.1-1.4,0-2.8,0-4.2
			c0.1-1.4,0.3-2.8,0.5-4.1c0.9-5.5,3-10.7,6-15.2c3-4.5,6.9-8.4,11.4-11.3c4.5-2.9,9.5-4.8,14.6-5.7c10.2-1.8,20.7,0.6,28.8,6.1
			C193,267.6,198.9,275.9,201.2,285.1z M200.5,285.3c-1.2-4.5-3.3-8.8-6.1-12.5c-2.8-3.7-6.4-6.9-10.4-9.2c-4-2.4-8.5-3.9-13.1-4.5
			c-4.6-0.6-9.4-0.3-13.9,0.8c-4.5,1.2-8.8,3.2-12.5,6.1c-3.7,2.8-6.8,6.4-9.2,10.4c-2.3,4-3.9,8.5-4.5,13.1
			c-0.6,4.6-0.3,9.3,0.8,13.8c1.2,4.5,3.2,8.8,6,12.5c2.8,3.7,6.3,6.9,10.3,9.2c4,2.4,8.5,3.9,13.1,4.6c4.6,0.7,9.3,0.4,13.8-0.7
			c4.5-1.2,8.8-3.2,12.5-6c3.7-2.8,6.9-6.3,9.3-10.3c2.4-4,4-8.5,4.6-13.1C202,294.6,201.7,289.8,200.5,285.3z"/>
	</g>
	<g id="highlight-1">
		<path class="st2" d="M136.4,298.8c-1.2-4.8-0.9-9.9,0.6-14.8c1.5-4.8,4.3-9.3,7.9-13c3.6-3.6,8.1-6.4,13-7.9
			c4.8-1.5,10-1.8,14.8-0.6c-4.7,1.3-9,2.8-13,4.9c-3.9,2.1-7.5,4.7-10.5,7.8c-3.1,3.1-5.7,6.6-7.8,10.5
			C139.2,289.7,137.7,294,136.4,298.8z"/>
	</g>
	<g id="body">
		<circle class="st3" cx="265.9" cy="233.6" r="97.8"/>
		<path d="M364.2,233.6c0,12.9-2.3,25.7-6.9,37.8c-2.3,6.1-5.1,11.9-8.5,17.5c-3.4,5.6-7.4,10.8-11.8,15.7c-4.5,4.8-9.4,9.2-14.9,13
			c-1.4,0.9-2.7,1.9-4.1,2.8c-1.4,0.8-2.8,1.7-4.3,2.6c-1.5,0.8-2.9,1.6-4.4,2.3c-1.5,0.7-3,1.4-4.5,2.1
			c-12.2,5.2-25.6,7.7-38.8,7.5c-6.6-0.1-13.2-1-19.6-2.4c-6.4-1.5-12.7-3.6-18.7-6.3c-6-2.7-11.7-6-17-9.7
			c-5.3-3.7-10.3-8-14.8-12.6c-9.1-9.3-16.4-20.2-21.6-32.1c-0.6-1.5-1.3-3-1.8-4.5c-0.5-1.5-1.1-3.1-1.6-4.6
			c-0.5-1.6-1-3.1-1.4-4.7c-0.4-1.6-0.8-3.1-1.2-4.7c-1.4-6.4-2.2-12.9-2.4-19.4c-0.3-13.1,1.8-26.4,6.7-38.7
			c4.8-12.3,12.2-23.7,21.5-33.2c9.3-9.5,20.5-17.2,32.8-22.4c6.1-2.6,12.6-4.6,19.1-5.9c6.6-1.3,13.2-2,19.9-2
			c6.7,0.1,13.3,0.8,19.9,2.1c6.5,1.3,12.9,3.3,19,6c1.5,0.7,3,1.4,4.5,2.1c1.5,0.7,2.9,1.6,4.4,2.3c1.4,0.8,2.8,1.7,4.3,2.6
			c1.4,0.9,2.7,1.9,4.1,2.8c5.4,3.8,10.4,8.3,14.8,13.1c8.9,9.7,15.8,21.1,20.3,33.2C361.9,207.8,364.2,220.7,364.2,233.6z
			 M363.4,233.6c0-12.8-2.8-25.5-8-37c-5.2-11.6-12.9-21.8-22.1-30.3c-18.4-16.8-42.7-26.5-67.3-26.3c-6.1,0-12.3,0.6-18.3,1.8
			c-6,1.2-11.9,3-17.6,5.2c-11.4,4.6-21.8,11.4-30.7,20c-17.6,17.2-28.4,41.4-29.1,66.5c-0.3,12.5,1.8,25.2,6.5,36.9
			c4.7,11.7,11.9,22.5,20.9,31.3c4.5,4.4,9.5,8.3,14.8,11.7c5.3,3.3,11,6.2,16.8,8.4c11.7,4.4,24.2,6.4,36.6,6.1
			c24.8-0.5,49-10.1,67.4-27.1c9.2-8.5,16.9-18.8,22.1-30.3C360.6,259.1,363.4,246.3,363.4,233.6z"/>
	</g>
	<g id="highlight-body">
		<path class="st2" d="M183.1,230.4c-1.9-10.6-0.7-21.8,2.9-32.2c3.6-10.5,9.7-20.1,17.6-28c7.9-7.9,17.6-14,28-17.6
			c10.4-3.6,21.7-4.8,32.2-2.9c-10.6,1.9-20.5,4.9-29.5,9.4c-9.1,4.5-17.3,10.4-24.4,17.4c-7.1,7.1-12.9,15.3-17.4,24.4
			C187.9,209.9,185,219.8,183.1,230.4z"/>
	</g>
	<g id="spots">
		<circle class="st4" cx="320.1" cy="274.1" r="18.1"/>
		<circle class="st4" cx="342" cy="267.8" r="6.3"/>
		<circle class="st4" cx="333.2" cy="246.5" r="6.8"/>
		<circle class="st4" cx="349.9" cy="236.6" r="5.7"/>
		<circle class="st4" cx="349.9" cy="215.8" r="4.5"/>
	</g>
	<g id="foot-4">
		
			<ellipse transform="matrix(0.619 -0.7854 0.7854 0.619 -134.8542 361.2638)" class="st1" cx="304.9" cy="319.6" rx="36.1" ry="36.1"/>
		<path d="M327.5,291.1c3.8,2.9,6.9,6.6,9.4,10.7c2.4,4.1,4.2,8.7,4.9,13.5c1.6,9.6-0.5,20-6.3,28.5c-2.9,4.2-6.6,7.9-11.1,10.8
			c-4.4,2.8-9.4,4.8-14.7,5.6c-5.3,0.8-10.8,0.6-16-0.7c-5.2-1.3-10.2-3.8-14.5-7.2l-3-2.7c-0.9-1-1.9-2-2.8-3
			c-0.9-1-1.6-2.2-2.4-3.3c-0.7-1.1-1.4-2.3-2.1-3.5c-2.5-4.8-4-10.1-4.4-15.4c-0.4-5.3,0.4-10.7,2-15.6c1.7-5,4.5-9.5,7.9-13.3
			c6.9-7.6,16.5-12.1,26.2-12.7c4.8-0.4,9.7,0.2,14.3,1.6C319.4,285.9,323.7,288.1,327.5,291.1z M327.1,291.5
			c-3.7-2.9-7.9-5-12.5-6.3c-4.5-1.3-9.3-1.6-13.9-1.1c-4.6,0.6-9.2,2-13.2,4.3c-4.1,2.3-7.7,5.4-10.6,9.1c-2.9,3.7-5,7.9-6.3,12.4
			c-1.3,4.5-1.6,9.2-1.1,13.8c0.6,4.6,2,9.1,4.3,13.2c2.3,4.1,5.4,7.6,9,10.5c3.6,2.9,7.9,5,12.3,6.3c4.5,1.3,9.2,1.7,13.8,1.1
			c4.6-0.5,9.1-2,13.2-4.3c4.1-2.3,7.7-5.3,10.6-9c2.9-3.7,5.1-7.9,6.3-12.4c1.3-4.5,1.7-9.2,1.1-13.9c-0.5-4.6-2-9.2-4.3-13.3
			C333.9,298.1,330.8,294.4,327.1,291.5z"/>
	</g>
	<g id="hightlight-4">
		<path class="st2" d="M273.9,327.6c-1.2-4.8-0.9-9.9,0.6-14.8c1.5-4.8,4.3-9.3,7.9-13c3.6-3.6,8.1-6.4,13-7.9
			c4.8-1.5,10-1.8,14.8-0.6c-4.7,1.3-9,2.8-13,4.9c-3.9,2.1-7.5,4.7-10.5,7.8c-3.1,3.1-5.7,6.6-7.8,10.5
			C276.7,318.5,275.2,322.8,273.9,327.6z"/>
	</g>
	<g id="foot-3">
		
			<ellipse transform="matrix(0.3142 -0.9494 0.9494 0.3142 -139.4343 447.858)" class="st0" cx="240.3" cy="320.4" rx="36.1" ry="36.1"/>
		<path d="M274.8,331.9c-3,9.1-9.4,17-17.9,21.8c-8.4,4.9-19,6.6-29.1,4.1c-5-1.3-9.9-3.5-14.2-6.7c-4.2-3.2-7.9-7.3-10.6-12.1
			c-2.7-4.7-4.4-10.1-4.9-15.6c-0.6-5.5,0.1-11.1,1.8-16.4l1.5-3.9c0.6-1.2,1.3-2.5,1.9-3.7c0.7-1.2,1.5-2.3,2.3-3.5
			c0.8-1.1,1.7-2.2,2.6-3.2c3.7-4.1,8.3-7.4,13.2-9.6c5-2.2,10.4-3.3,15.7-3.3c5.3,0,10.6,1.1,15.3,3.1c9.6,4,17.1,11.7,20.9,20.7
			C277.5,312.7,277.9,322.8,274.8,331.9z M274.2,331.7c1.4-4.5,2-9.2,1.7-13.8c-0.4-4.7-1.6-9.2-3.7-13.4c-2.1-4.2-5-7.9-8.6-10.9
			c-3.5-3-7.7-5.4-12.1-6.8c-4.4-1.4-9.1-2-13.8-1.7c-4.6,0.4-9.2,1.6-13.3,3.7c-4.1,2.1-7.9,5-10.9,8.5c-3,3.5-5.3,7.6-6.8,12
			c-1.5,4.4-2.1,9.1-1.7,13.7c0.3,4.6,1.6,9.2,3.6,13.3c2.1,4.2,5,7.9,8.5,10.9c3.5,3.1,7.6,5.4,12,6.9c4.4,1.5,9.1,2.1,13.8,1.7
			c4.6-0.3,9.2-1.6,13.4-3.7c4.2-2.1,7.9-5,11-8.5C270.3,340.2,272.7,336.1,274.2,331.7z"/>
	</g>
	<g id="highlight-3">
		<path class="st2" d="M205.3,329.5c-1.2-4.8-0.9-9.9,0.6-14.8c1.5-4.8,4.3-9.3,7.9-13c3.6-3.6,8.1-6.4,13-7.9
			c4.8-1.5,10-1.8,14.8-0.6c-4.7,1.3-9,2.8-13,4.9c-3.9,2.1-7.5,4.7-10.5,7.8c-3.1,3.1-5.7,6.6-7.8,10.5
			C208.1,320.4,206.6,324.7,205.3,329.5z"/>
	</g>
	<g id="foot-2">
		<circle class="st3" cx="194" cy="311.3" r="36.1"/>
		<path d="M230.4,311.3c0,9.5-3.6,19.1-10.1,26.3c-6.5,7.3-16,12.3-26.3,13.1c-5.1,0.4-10.5-0.2-15.5-1.9c-5-1.7-9.8-4.4-13.9-8.1
			c-4-3.7-7.3-8.2-9.6-13.3c-2.3-5.1-3.4-10.6-3.4-16.1l0.2-4.1c0.2-1.4,0.4-2.7,0.6-4.1c0.3-1.4,0.7-2.7,1.1-4
			c0.4-1.3,1-2.6,1.5-3.9c2.2-5.1,5.5-9.6,9.6-13.2c4-3.7,8.8-6.4,13.9-8.1c5.1-1.7,10.4-2.3,15.5-1.9c10.3,0.8,19.9,5.7,26.3,13.1
			C226.9,292.3,230.5,301.8,230.4,311.3z M229.7,311.3c0-4.7-1-9.3-2.8-13.7c-1.8-4.3-4.5-8.3-7.8-11.5c-3.3-3.3-7.3-5.9-11.6-7.7
			c-4.3-1.8-9-2.7-13.6-2.7c-4.7,0-9.3,1-13.6,2.7c-4.3,1.8-8.2,4.4-11.5,7.7c-3.3,3.3-5.9,7.2-7.6,11.5c-1.8,4.3-2.7,8.9-2.7,13.6
			c0,4.6,0.9,9.3,2.7,13.6c1.8,4.3,4.4,8.2,7.6,11.5c3.3,3.3,7.2,5.9,11.5,7.7c4.3,1.8,8.9,2.7,13.6,2.7c4.7,0,9.3-0.9,13.6-2.7
			c4.3-1.8,8.3-4.4,11.6-7.7c3.3-3.3,6-7.2,7.8-11.5C228.8,320.7,229.7,316,229.7,311.3z"/>
	</g>
	<g id="highlight-2">
		<path class="st2" d="M165,319.6c-1.2-4.8-0.9-9.9,0.6-14.8c1.5-4.8,4.3-9.3,7.9-13c3.6-3.6,8.1-6.4,13-7.9
			c4.8-1.5,10-1.8,14.8-0.6c-4.7,1.3-9,2.8-13,4.9c-3.9,2.1-7.5,4.7-10.5,7.8c-3.1,3.1-5.7,6.6-7.8,10.5
			C167.8,310.6,166.2,314.9,165,319.6z"/>
	</g>
	<polygon id="star" class="st5" points="233.3,152.3 247.9,181.9 280.6,186.6 257,209.7 262.5,242.3 233.3,226.9 204.1,242.3 
		209.7,209.7 186,186.6 218.7,181.9 	"/>
	<g id="Right_Eye">
		<g>
			<circle class="st4" cx="304.9" cy="201.6" r="24.3"/>
			<path d="M329.5,201.6c0,3.2-0.5,6.4-1.6,9.5c-1.1,3.1-2.6,6-4.8,8.6c-2.2,2.5-5,4.6-8.1,6c-3.1,1.4-6.6,2-10,1.9
				c-3.4-0.1-6.7-1-9.7-2.5c-3-1.5-5.7-3.5-7.9-5.8c-4.5-4.7-7.4-11-7.8-17.7c-0.2-3.3,0.3-6.7,1.5-9.9c1.2-3.2,3-6.1,5.4-8.6
				c2.4-2.5,5.3-4.5,8.4-5.9c3.2-1.4,6.7-2.1,10.1-2.1c3.5,0.1,6.9,0.8,10,2.2c3.1,1.4,5.9,3.6,8.1,6.1c2.2,2.6,3.8,5.5,4.8,8.6
				l0.7,2.3c0.2,0.8,0.3,1.6,0.5,2.4l0.3,2.4L329.5,201.6z M329.1,201.6l-0.2-2.4c-0.1-0.8-0.2-1.6-0.4-2.3
				c-0.2-0.8-0.5-1.5-0.7-2.3c-0.3-0.7-0.6-1.4-0.9-2.2c-1.4-2.8-3.4-5.2-5.7-7.2c-4.7-3.8-10.4-6-16.3-5.9
				c-5.8,0-11.6,2.2-15.9,6.3c-4.2,4.1-7,9.8-7.4,15.9c-0.1,3,0.2,6.2,1.4,9c1.1,2.9,2.9,5.5,5.1,7.7c2.2,2.1,5,3.8,7.9,4.7
				c2.9,1,5.9,1.3,8.9,1.2c3-0.1,5.9-0.7,8.6-1.8c2.7-1.1,5.4-2.6,7.7-4.5c2.3-2,4.3-4.4,5.7-7.2C328.3,208,329.1,204.8,329.1,201.6
				z"/>
		</g>
		<g>
			<circle cx="302.1" cy="205.3" r="18"/>
			<path class="st6" d="M320,205.3c0-2.3-0.5-4.7-1.6-6.7c-1-2.1-2.5-3.9-4.2-5.3c-1.7-1.4-3.6-2.5-5.7-3.3c-2-0.8-4.2-1.3-6.4-1.3
				c-2.2-0.1-4.4,0.2-6.6,0.9c-2.1,0.7-4.1,1.9-5.8,3.5c-3.3,3.2-5.1,7.9-4.8,12.4c0.3,4.5,2.3,8.7,5.4,11.7c3.2,3,7.4,4.6,11.7,4.7
				c4.3,0.1,8.5-1.5,12-4.4c1.7-1.4,3.2-3.2,4.2-5.3C319.4,210,319.9,207.7,320,205.3z M320.3,205.3c0,4.7-1.5,9.6-4.7,13.4
				c-1.6,1.9-3.6,3.5-6,4.5c-2.3,1.1-4.9,1.6-7.4,1.6c-2.6,0-5.1-0.5-7.5-1.5c-2.3-1-4.5-2.5-6.2-4.3c-1.8-1.8-3.1-4-4-6.4
				c-0.9-2.4-1.2-4.9-1.1-7.3c0.3-4.9,2.4-9.6,5.7-13c1.7-1.7,3.6-3.2,5.9-4.3c2.2-1.1,4.7-1.8,7.2-1.9c2.5-0.1,5.1,0.4,7.4,1.4
				c2.3,1,4.4,2.6,6,4.4C318.8,195.8,320.2,200.6,320.3,205.3z"/>
		</g>
		<ellipse class="st7" cx="308.3" cy="188.5" rx="7.2" ry="5"/>
	</g>
	<g id="Left_Eye">
		<g>
			<circle class="st4" cx="233.3" cy="201.6" r="24.3"/>
			<path d="M257.8,201.6c0,3.2-0.5,6.4-1.6,9.5c-1.1,3.1-2.6,6-4.8,8.6c-2.2,2.5-5,4.6-8.1,6c-3.1,1.4-6.6,2-10,1.9
				c-3.4-0.1-6.7-1-9.7-2.5c-3-1.5-5.7-3.5-7.9-5.8c-4.5-4.7-7.4-11-7.8-17.7c-0.2-3.3,0.3-6.7,1.5-9.9c1.2-3.2,3-6.1,5.4-8.6
				c2.4-2.5,5.3-4.5,8.4-5.9c3.2-1.4,6.7-2.1,10.1-2.1c3.5,0.1,6.9,0.8,10,2.2c3.1,1.4,5.9,3.6,8.1,6.1c2.2,2.6,3.8,5.5,4.8,8.6
				l0.7,2.3c0.2,0.8,0.3,1.6,0.5,2.4l0.3,2.4L257.8,201.6z M257.4,201.6l-0.2-2.4c-0.1-0.8-0.2-1.6-0.4-2.3
				c-0.2-0.8-0.5-1.5-0.7-2.3c-0.3-0.7-0.6-1.4-0.9-2.2c-1.4-2.8-3.4-5.2-5.7-7.2c-4.7-3.8-10.4-6-16.3-5.9
				c-5.8,0-11.6,2.2-15.9,6.3c-4.2,4.1-7,9.8-7.4,15.9c-0.1,3,0.2,6.2,1.4,9c1.1,2.9,2.9,5.5,5.1,7.7c2.2,2.1,5,3.8,7.9,4.7
				c2.9,1,5.9,1.3,8.9,1.2c3-0.1,5.9-0.7,8.6-1.8c2.7-1.1,5.4-2.6,7.7-4.5c2.3-2,4.3-4.4,5.7-7.2C256.7,208,257.4,204.8,257.4,201.6
				z"/>
		</g>
		<g>
			<circle cx="230.5" cy="205.3" r="18"/>
			<path class="st6" d="M248.3,205.3c0-2.3-0.5-4.7-1.6-6.7c-1-2.1-2.5-3.9-4.2-5.3c-1.7-1.4-3.6-2.5-5.7-3.3
				c-2-0.8-4.2-1.3-6.4-1.3c-2.2-0.1-4.4,0.2-6.6,0.9c-2.1,0.7-4.1,1.9-5.8,3.5c-3.3,3.2-5.1,7.9-4.8,12.4c0.3,4.5,2.3,8.7,5.4,11.7
				c3.2,3,7.4,4.6,11.7,4.7c4.3,0.1,8.5-1.5,12-4.4c1.7-1.4,3.2-3.2,4.2-5.3C247.7,210,248.3,207.7,248.3,205.3z M248.6,205.3
				c0,4.7-1.5,9.6-4.7,13.4c-1.6,1.9-3.6,3.5-6,4.5c-2.3,1.1-4.9,1.6-7.4,1.6c-2.6,0-5.1-0.5-7.5-1.5c-2.3-1-4.5-2.5-6.2-4.3
				c-1.8-1.8-3.1-4-4-6.4c-0.9-2.4-1.2-4.9-1.1-7.3c0.3-4.9,2.4-9.6,5.7-13c1.7-1.7,3.6-3.2,5.9-4.3c2.2-1.1,4.7-1.8,7.2-1.9
				c2.5-0.1,5.1,0.4,7.4,1.4c2.3,1,4.4,2.6,6,4.4C247.1,195.8,248.6,200.6,248.6,205.3z"/>
		</g>
		<ellipse class="st7" cx="236.6" cy="188.5" rx="7.2" ry="5"/>
	</g>
	<path id="mouth-1" class="st8" d="M254.2,245.9c0,0,8.4,15,15.2,14.3s12.6-14.6,12.6-14.6s-5.6,9.3-12.6,9.4
		C262.4,255,254.2,245.9,254.2,245.9z"/>
	<path id="mouth-2" class="st5" d="M264.4,238.9c3.6-8-15.3,7.4-10.7,10.3c4.7,3,16.3-1.5,16.3-1.5s5,4.5,11.3,4.5s-6-13.3-6-13.3
		S260.7,246.9,264.4,238.9z"/>
	<circle id="mouth-3" class="st5" cx="269.5" cy="244.4" r="9.5"/>
	<path id="mouth-4" class="st5" d="M267.5,231.6c0,0-1.9,5,0,13.7s-11.5-7.2-10.3,1.3c1.2,8.5,9,10.1,9,10.1s12,3.4,15-7.1
		c3-10.5-7-3-7-3L267.5,231.6z"/>
	<g id="Layer_9">
	</g>
</g>
<g id="takoyaki-1">
	<g id="shadow-1">
		<ellipse class="st9" cx="256" cy="393" rx="107.6" ry="24.5"/>
		<path d="M363.4,393c0-2.4-1.6-4.4-3.3-5.9c-1.8-1.6-3.8-2.8-5.9-3.8c-4.2-2.1-8.8-3.7-13.3-5c-4.6-1.3-9.2-2.3-13.9-3.2
			c-4.7-0.9-9.4-1.6-14.1-2.2c-9.4-1.2-18.9-1.8-28.4-2.2c-9.5-0.4-19-0.4-28.5-0.2c-19,0.4-37.9,1.9-56.6,4.9
			c-9.3,1.5-18.6,3.4-27.4,6c-4.4,1.3-8.8,2.9-12.7,4.9c-1.9,1-3.8,2.1-5.2,3.4c-0.7,0.6-1.3,1.3-1.6,1.9c-0.4,0.6-0.5,1.1-0.5,1.5
			c0,0.4,0.1,0.9,0.5,1.5c0.4,0.6,0.9,1.3,1.6,1.9c1.4,1.3,3.3,2.4,5.2,3.4c3.9,2,8.3,3.6,12.7,4.9c8.9,2.7,18.1,4.5,27.4,6
			c18.6,3,37.6,4.5,56.6,4.9c9.5,0.2,19,0.1,28.5-0.2c9.5-0.4,19-1,28.4-2.3c4.7-0.6,9.4-1.3,14.1-2.2c4.7-0.9,9.3-1.9,13.9-3.2
			c4.6-1.3,9.1-2.9,13.3-5c2.1-1.1,4.2-2.3,5.9-3.8C361.9,397.4,363.4,395.4,363.4,393z M363.8,393c0,1.2-0.4,2.4-1,3.5
			c-0.6,1-1.5,1.9-2.4,2.8c-1.8,1.6-3.9,2.8-6,3.9c-4.3,2.2-8.8,3.7-13.4,5.1c-9.2,2.7-18.6,4.4-28,5.8c-18.9,2.7-38,3.7-57,3.8
			c-19.1,0-38.2-1-57-3.7c-9.4-1.4-18.8-3.1-28-5.7c-4.6-1.4-9.1-2.9-13.4-5.1c-2.1-1.1-4.2-2.3-6-4c-0.9-0.8-1.7-1.7-2.4-2.8
			c-0.7-1.1-1.1-2.3-1.1-3.6c0-1.3,0.4-2.5,1.1-3.6c0.6-1.1,1.5-2,2.4-2.8c1.8-1.6,3.9-2.9,6-4c4.3-2.2,8.8-3.7,13.4-5.1
			c9.2-2.7,18.6-4.4,28-5.7c18.9-2.6,38-3.7,57-3.7c19.1,0,38.1,1.1,57,3.8c9.4,1.4,18.8,3.1,28,5.8c4.6,1.4,9.1,2.9,13.4,5.1
			c2.1,1.1,4.2,2.3,6,3.9c0.9,0.8,1.7,1.7,2.4,2.8C363.4,390.6,363.8,391.8,363.8,393z"/>
	</g>
	<g id="bun-1">
		<path class="st10" d="M340.2,285.5c-0.4,0-0.8,0-1.2,0c-15.8,0-30.3-5.6-41.6-15c-11.7,17-31.4,28.2-53.6,28.2
			c-2.6,0-5.2-0.2-7.7-0.5c-6.7,28.8-32.5,50.3-63.4,50.3c-9.8,0-19.1-2.2-27.5-6.1c25.4,33.5,65.6,55.1,110.8,55.1
			c50.2,0,94.2-26.6,118.6-66.5C357.1,322,344.1,305.4,340.2,285.5z"/>
		<path d="M339.7,286.1l-0.5,0.2c-0.2,0.1-0.2,0.1-0.5,0.1l-1.5,0.1c-1,0.1-2,0.2-3,0.2l-1.5,0.1l-1.5,0c-1,0-2,0-3-0.1
			c-4-0.2-8-0.9-11.9-1.9c-3.9-1-7.8-2.5-11.5-4.3c-3.7-1.8-7.2-3.9-10.6-6.4l6.9-0.9c-3.3,5.4-7.5,10.3-12.2,14.6
			c-4.8,4.3-10.1,8-15.9,10.7c-5.8,2.8-12.1,4.8-18.5,5.9c-1.6,0.3-3.2,0.5-4.8,0.6c-1.6,0.2-3.2,0.2-4.9,0.3
			c-3.3,0.2-6.5-0.1-9.7-0.4l7.4-5.2l-1.1,3.8l-0.6,1.9c-0.2,0.6-0.5,1.2-0.7,1.9l-1.4,3.7c-0.6,1.2-1.2,2.4-1.8,3.6l-0.9,1.8
			c-0.3,0.6-0.7,1.1-1,1.7l-2.1,3.4c-0.8,1.1-1.6,2.1-2.4,3.2l-1.2,1.6l-1.3,1.5l-2.6,2.9l-2.9,2.7l-1.4,1.3l-1.5,1.2l-3.1,2.4
			l-3.3,2.1c-0.5,0.3-1.1,0.7-1.6,1l-1.7,0.9c-1.1,0.6-2.3,1.2-3.4,1.8l-3.5,1.5c-0.6,0.2-1.2,0.5-1.8,0.7l-1.8,0.6
			c-1.2,0.4-2.4,0.8-3.6,1.2l-3.7,0.9c-0.6,0.1-1.2,0.3-1.9,0.4l-1.9,0.3l-3.7,0.6l-3.8,0.3l-1.9,0.2c-0.6,0-1.3,0-1.9,0l-3.8,0
			c-10-0.2-19.9-2.5-29-6.6l2.8-3.5c6.8,8.8,14.9,16.5,23.8,23c8.9,6.5,18.6,11.7,28.7,15.7c1.3,0.5,2.5,1.1,3.8,1.5l3.8,1.3
			c2.5,1,5.2,1.6,7.7,2.4c5.2,1.4,10.4,2.6,15.7,3.5c10.6,1.8,21.3,2.3,32,1.4c21.3-1.6,41.9-8.1,60.4-18.5
			c9.3-5.2,17.9-11.6,25.8-18.8c7.9-7.2,15-15.4,21.3-24.3l2.1,7.5c-4.6-2.7-8.9-5.8-12.7-9.4c-3.8-3.6-7.2-7.7-10-12
			c-2.8-4.4-5.1-9-6.8-13.8c-0.4-1.2-0.8-2.4-1.1-3.6l-0.9-3.7l-0.7-3.7C339.8,288.4,339.8,287.3,339.7,286.1z M340.7,284.9
			c0.5,1.2,1,2.5,1.5,3.9l1.4,3.4l1.5,3.3c0.5,1.1,1.1,2.1,1.7,3.2c2.3,4.2,5.1,8,8.2,11.5c3.1,3.5,6.5,6.6,10.3,9.3
			c3.7,2.7,7.7,5,11.8,6.8l5,2.2l-2.9,5.4c-11.1,20.6-28,38.4-48.2,50.9l-1.9,1.2c-0.6,0.4-1.3,0.7-1.9,1.1l-3.9,2.1
			c-2.6,1.5-5.3,2.7-8,3.9c-2.7,1.3-5.5,2.3-8.3,3.4c-1.4,0.5-2.8,1.1-4.2,1.5l-4.3,1.3c-11.4,3.4-23.3,5.2-35.2,5.5
			c-11.9,0.4-23.7-0.8-35.3-3.3c-11.5-2.6-22.7-6.7-33-12.2c-10.3-5.5-19.8-12.3-28.5-20c-8.6-7.7-16.4-16.2-23.2-25.4l-5.6-7.5
			l8.4,4c8.4,4,17.8,6,27,5.5l3.5-0.3c0.6-0.1,1.2-0.1,1.7-0.2l1.7-0.3l3.4-0.6l3.3-0.9l1.7-0.5c0.5-0.2,1.1-0.4,1.6-0.6l3.2-1.2
			c1-0.5,2-1,3.1-1.5l1.5-0.7c0.5-0.3,1-0.6,1.5-0.9l2.9-1.7c0.9-0.6,1.8-1.3,2.7-2l1.4-1c0.4-0.3,0.9-0.7,1.3-1.1l2.5-2.2l2.3-2.4
			l1.2-1.2l1.1-1.3l2.1-2.5l1.9-2.7l1-1.3l0.9-1.4l1.7-2.8l1.5-2.9c0.3-0.5,0.5-0.9,0.8-1.4l0.6-1.5c1.9-3.9,3-8.1,4.2-12.2l1.6-5.9
			l5.8,0.7c1.3,0.2,2.7,0.3,4,0.3c1.3,0.1,2.6,0.2,3.9,0.1c1.3,0,2.7,0,4-0.2c1.3-0.1,2.6-0.2,3.9-0.4c5.3-0.7,10.4-2.1,15.3-4.1
			c4.9-2,9.6-4.8,13.9-8c4.3-3.3,8.2-7.1,11.6-11.4l3.4-4.3l3.5,3.3c2.6,2.5,5.4,4.7,8.5,6.7c3,2,6.2,3.8,9.6,5.3
			c3.4,1.5,6.9,2.8,10.5,3.8c0.9,0.2,1.8,0.5,2.7,0.7c0.9,0.2,1.8,0.4,2.8,0.6c0.9,0.2,1.9,0.4,2.8,0.5l1.4,0.2c0.2,0,0.6,0.1,1,0.1
			C340.1,284.8,340.4,284.8,340.7,284.9z"/>
	</g>
	<g id="outline-1">
		<path d="M339.7,286.1l-0.5,0.2c-0.2,0.1-0.2,0.1-0.5,0.1l-1.5,0.1c-1,0.1-2,0.2-3,0.2l-1.5,0.1l-1.5,0c-1,0-2,0-3-0.1
			c-4-0.2-8-0.9-11.9-1.9c-3.9-1-7.8-2.5-11.5-4.3c-3.7-1.8-7.2-3.9-10.6-6.4l6.9-0.9c-3.3,5.4-7.5,10.3-12.2,14.6
			c-4.8,4.3-10.1,8-15.9,10.7c-5.8,2.8-12.1,4.8-18.5,5.9c-1.6,0.3-3.2,0.5-4.8,0.6c-1.6,0.2-3.2,0.2-4.9,0.3
			c-3.3,0.2-6.5-0.1-9.7-0.4l7.4-5.2l-1.1,3.8l-0.6,1.9c-0.2,0.6-0.5,1.2-0.7,1.9l-1.4,3.7c-0.6,1.2-1.2,2.4-1.8,3.6l-0.9,1.8
			c-0.3,0.6-0.7,1.1-1,1.7l-2.1,3.4c-0.8,1.1-1.6,2.1-2.4,3.2l-1.2,1.6l-1.3,1.5l-2.6,2.9l-2.9,2.7l-1.4,1.3l-1.5,1.2l-3.1,2.4
			l-3.3,2.1c-0.5,0.3-1.1,0.7-1.6,1l-1.7,0.9c-1.1,0.6-2.3,1.2-3.4,1.8l-3.5,1.5c-0.6,0.2-1.2,0.5-1.8,0.7l-1.8,0.6
			c-1.2,0.4-2.4,0.8-3.6,1.2l-3.7,0.9c-0.6,0.1-1.2,0.3-1.9,0.4l-1.9,0.3l-3.7,0.6l-3.8,0.3l-1.9,0.2c-0.6,0-1.3,0-1.9,0l-3.8,0
			c-10-0.2-19.9-2.5-29-6.6l2.8-3.5c6.8,8.8,14.9,16.5,23.8,23c8.9,6.5,18.6,11.7,28.7,15.7c1.3,0.5,2.5,1.1,3.8,1.5l3.8,1.3
			c2.5,1,5.2,1.6,7.7,2.4c5.2,1.4,10.4,2.6,15.7,3.5c10.6,1.8,21.3,2.3,32,1.4c21.3-1.6,41.9-8.1,60.4-18.5
			c9.3-5.2,17.9-11.6,25.8-18.8c7.9-7.2,15-15.4,21.3-24.3l2.1,7.5c-4.6-2.7-8.9-5.8-12.7-9.4c-3.8-3.6-7.2-7.7-10-12
			c-2.8-4.4-5.1-9-6.8-13.8c-0.4-1.2-0.8-2.4-1.1-3.6l-0.9-3.7l-0.7-3.7C339.8,288.4,339.8,287.3,339.7,286.1z M340.7,284.9
			c0.5,1.2,1,2.5,1.5,3.9l1.4,3.4l1.5,3.3c0.5,1.1,1.1,2.1,1.7,3.2c2.3,4.2,5.1,8,8.2,11.5c3.1,3.5,6.5,6.6,10.3,9.3
			c3.7,2.7,7.7,5,11.8,6.8l5,2.2l-2.9,5.4c-11.1,20.6-28,38.4-48.2,50.9l-1.9,1.2c-0.6,0.4-1.3,0.7-1.9,1.1l-3.9,2.1
			c-2.6,1.5-5.3,2.7-8,3.9c-2.7,1.3-5.5,2.3-8.3,3.4c-1.4,0.5-2.8,1.1-4.2,1.5l-4.3,1.3c-11.4,3.4-23.3,5.2-35.2,5.5
			c-11.9,0.4-23.7-0.8-35.3-3.3c-11.5-2.6-22.7-6.7-33-12.2c-10.3-5.5-19.8-12.3-28.5-20c-8.6-7.7-16.4-16.2-23.2-25.4l-5.6-7.5
			l8.4,4c8.4,4,17.8,6,27,5.5l3.5-0.3c0.6-0.1,1.2-0.1,1.7-0.2l1.7-0.3l3.4-0.6l3.3-0.9l1.7-0.5c0.5-0.2,1.1-0.4,1.6-0.6l3.2-1.2
			c1-0.5,2-1,3.1-1.5l1.5-0.7c0.5-0.3,1-0.6,1.5-0.9l2.9-1.7c0.9-0.6,1.8-1.3,2.7-2l1.4-1c0.4-0.3,0.9-0.7,1.3-1.1l2.5-2.2l2.3-2.4
			l1.2-1.2l1.1-1.3l2.1-2.5l1.9-2.7l1-1.3l0.9-1.4l1.7-2.8l1.5-2.9c0.3-0.5,0.5-0.9,0.8-1.4l0.6-1.5c1.9-3.9,3-8.1,4.2-12.2l1.6-5.9
			l5.8,0.7c1.3,0.2,2.7,0.3,4,0.3c1.3,0.1,2.6,0.2,3.9,0.1c1.3,0,2.7,0,4-0.2c1.3-0.1,2.6-0.2,3.9-0.4c5.3-0.7,10.4-2.1,15.3-4.1
			c4.9-2,9.6-4.8,13.9-8c4.3-3.3,8.2-7.1,11.6-11.4l3.4-4.3l3.5,3.3c2.6,2.5,5.4,4.7,8.5,6.7c3,2,6.2,3.8,9.6,5.3
			c3.4,1.5,6.9,2.8,10.5,3.8c0.9,0.2,1.8,0.5,2.7,0.7c0.9,0.2,1.8,0.4,2.8,0.6c0.9,0.2,1.9,0.4,2.8,0.5l1.4,0.2c0.2,0,0.6,0.1,1,0.1
			C340.1,284.8,340.4,284.8,340.7,284.9z"/>
	</g>
	<path id="scorch-1" class="st11" d="M348.4,306.7l-19.1,31.4l-34.1-55.7l-16.1,57l-45.4-33.6c-0.2,0.6-0.4,1.1-0.6,1.7l22.9,53.9
		L190.3,346c-0.1,0-0.2,0.1-0.3,0.1l89.2,51.3l29.7-10.4l27.8-8.9l19-61.8C353,313.4,350.5,310.1,348.4,306.7z"/>
</g>
<g id="takoyaki-2">
	<g id="shadow-3_1_">
		<ellipse class="st9" cx="255.5" cy="393" rx="107.6" ry="24.5"/>
		<path d="M362.9,393c0-2.4-1.6-4.4-3.3-5.9c-1.8-1.6-3.8-2.8-5.9-3.8c-4.2-2.1-8.8-3.7-13.3-5c-4.6-1.3-9.2-2.3-13.9-3.2
			c-4.7-0.9-9.4-1.6-14.1-2.2c-9.4-1.2-18.9-1.8-28.4-2.2c-9.5-0.4-19-0.4-28.5-0.2c-19,0.4-37.9,1.9-56.6,4.9
			c-9.3,1.5-18.6,3.4-27.4,6c-4.4,1.3-8.8,2.9-12.7,4.9c-1.9,1-3.8,2.1-5.2,3.4c-0.7,0.6-1.3,1.3-1.6,1.9c-0.4,0.6-0.5,1.1-0.5,1.5
			c0,0.4,0.1,0.9,0.5,1.5c0.4,0.6,0.9,1.3,1.6,1.9c1.4,1.3,3.3,2.4,5.2,3.4c3.9,2,8.3,3.6,12.7,4.9c8.9,2.7,18.1,4.5,27.4,6
			c18.6,3,37.6,4.5,56.6,4.9c9.5,0.2,19,0.1,28.5-0.2c9.5-0.4,19-1,28.4-2.3c4.7-0.6,9.4-1.3,14.1-2.2c4.7-0.9,9.3-1.9,13.9-3.2
			c4.6-1.3,9.1-2.9,13.3-5c2.1-1.1,4.2-2.3,5.9-3.8C361.4,397.4,362.9,395.4,362.9,393z M363.3,393c0,1.2-0.4,2.4-1,3.5
			c-0.6,1-1.5,1.9-2.4,2.8c-1.8,1.6-3.9,2.8-6,3.9c-4.3,2.2-8.8,3.7-13.4,5.1c-9.2,2.7-18.6,4.4-28,5.8c-18.9,2.7-38,3.7-57,3.8
			c-19.1,0-38.2-1-57-3.7c-9.4-1.4-18.8-3.1-28-5.7c-4.6-1.4-9.1-2.9-13.4-5.1c-2.1-1.1-4.2-2.3-6-4c-0.9-0.8-1.7-1.7-2.4-2.8
			c-0.7-1.1-1.1-2.3-1.1-3.6c0-1.3,0.4-2.5,1.1-3.6c0.6-1.1,1.5-2,2.4-2.8c1.8-1.6,3.9-2.9,6-4c4.3-2.2,8.8-3.7,13.4-5.1
			c9.2-2.7,18.6-4.4,28-5.7c18.9-2.6,38-3.7,57-3.7c19.1,0,38.1,1.1,57,3.8c9.4,1.4,18.8,3.1,28,5.8c4.6,1.4,9.1,2.9,13.4,5.1
			c2.1,1.1,4.2,2.3,6,3.9c0.9,0.8,1.7,1.7,2.4,2.8C362.9,390.6,363.3,391.8,363.3,393z"/>
	</g>
	<g id="bun-3_1_">
		<path class="st10" d="M390.9,226.8c-21.8-1.2-40.7-13.5-51.2-31.3c-10.7,6.8-23.4,10.8-37,10.8c-17.4,0-33.2-6.4-45.3-17
			c-12.4,17.9-33.1,29.7-56.6,29.7c-6.1,0-11.9-0.8-17.6-2.3c-4.9,32.3-32.2,57.3-65.6,58.4c8.2,68.9,66.9,122.4,138,122.4
			c76.8,0,139-62.2,139-139C394.5,247.6,393.2,236.9,390.9,226.8z"/>
		<path d="M390.4,227.3c-1.3,0.1-2.5,0.2-3.6,0.2c-1.3-0.1-2.6-0.2-4-0.3c-1.3-0.1-2.6-0.3-4-0.5c-1.3-0.2-2.6-0.5-3.9-0.8
			c-1.3-0.3-2.6-0.7-3.9-1.1c-1.3-0.4-2.6-0.9-3.8-1.3c-1.3-0.5-2.5-1.1-3.8-1.6c-1.2-0.6-2.4-1.2-3.7-1.8
			c-4.8-2.6-9.4-5.8-13.4-9.5c-4.1-3.7-7.7-8.1-10.7-12.7l6.5,1.6c-6.5,4.5-13.7,8-21.4,10.1c-7.7,2.2-15.7,3.1-23.7,2.6
			c-8-0.4-16-2.2-23.5-5.2c-7.5-3-14.5-7.3-20.6-12.6l9.9-1.2c-2.2,3.1-4.6,6.2-7.3,9c-1.3,1.4-2.7,2.7-4.1,4
			c-0.7,0.7-1.5,1.3-2.2,1.9c-0.8,0.6-1.5,1.3-2.3,1.8c-1.6,1.1-3.1,2.3-4.7,3.3c-0.8,0.5-1.6,1.1-2.4,1.5l-2.5,1.4
			c-0.8,0.5-1.7,0.9-2.6,1.3l-2.6,1.2l-2.7,1.1c-0.9,0.4-1.8,0.7-2.7,1l-2.7,0.9c-0.9,0.3-1.8,0.5-2.8,0.7c-1.8,0.5-3.7,0.8-5.6,1.2
			c-0.9,0.2-1.9,0.3-2.8,0.4l-2.8,0.3l-2.8,0.2c-0.9,0.1-1.9,0.1-2.8,0.1c-7.6,0.1-15.1-1.1-22.3-3.3l5.7-3.8
			c-1.6,8.3-4.8,16.3-9,23.5c-1.1,1.8-2.3,3.5-3.4,5.2l-3.9,4.9l-4.2,4.6l-4.6,4.2c-6.3,5.3-13.4,9.6-21.1,12.6
			c-1.9,0.7-3.9,1.4-5.8,2c-2,0.5-4,1.1-6,1.5c-2,0.3-4,0.7-6.1,1l-6.1,0.5l2.3-2.6c2.4,18.4,9,36.1,18.9,51.5
			c9.9,15.5,22.9,28.6,37.7,38.9c7.4,5.1,15.2,9.6,23.5,13.2c8.2,3.6,16.7,6.4,25.4,8.3c8.7,1.8,17.6,2.9,26.5,3
			c8.9,0.1,17.8-0.7,26.5-2.2c17.5-3.2,34.3-9.7,49.3-19.3l1.4-0.9l1.4-0.9l2.8-1.9c1.8-1.2,3.6-2.7,5.4-4c1.8-1.4,3.5-2.8,5.2-4.2
			c1.7-1.5,3.3-3,5-4.5c6.5-6.1,12.3-13,17.5-20.3c5.2-7.3,9.6-15.2,13.3-23.5c3.7-8.3,6.5-16.9,8.6-25.8c2.1-8.9,3.2-18.1,3.6-27.3
			c0.1-4.6,0.1-9.3-0.2-13.9c-0.1-2.3-0.3-4.6-0.6-7c-0.1-1.2-0.3-2.3-0.4-3.5l-0.2-1.7C390.4,228.3,390.4,227.9,390.4,227.3z
			 M391.4,226.2c0.3,0.6,0.5,1.3,0.8,2.1l0.5,1.8c0.3,1.1,0.6,2.3,0.9,3.4c0.6,2.3,1.1,4.6,1.6,7c0.9,4.7,1.6,9.4,2,14.2
			c0.1,1.2,0.2,2.4,0.3,3.6l0.1,3.6l0.1,3.6c0,1.2,0,2.4-0.1,3.6l-0.1,3.6c-0.1,1.2-0.2,2.4-0.3,3.6l-0.3,3.6
			c-0.1,1.2-0.3,2.4-0.5,3.6c-1.2,9.6-3.6,19.2-6.8,28.4c-3.3,9.2-7.6,18.1-12.8,26.5c-5.1,8.4-11.3,16.2-18.1,23.4
			c-1.8,1.7-3.5,3.5-5.3,5.2c-1.8,1.7-3.6,3.4-5.5,5l-2.9,2.4c-1,0.8-1.9,1.6-2.9,2.3l-3,2.2l-1.5,1.1l-1.5,1
			c-8.2,5.6-17.1,10.3-26.3,14c-9.2,3.7-18.9,6.5-28.7,8.1c-9.8,1.7-19.8,2.2-29.7,1.9c-9.9-0.4-19.8-1.8-29.4-4.2
			c-9.6-2.4-19-5.9-27.8-10.2c-8.9-4.4-17.3-9.6-25-15.6c-7.7-6.1-14.8-13-21-20.6c-6.2-7.5-11.7-15.6-16.2-24.2
			c-2.2-4.3-4.3-8.7-6.1-13.1l-1.4-3.3c-0.5-1.1-0.8-2.3-1.2-3.4L122,307l-1.1-3.5c-2.8-9.2-4.7-18.6-5.8-28.2l-0.3-2.5l2.5-0.2
			l5.7-0.4c1.9-0.3,3.8-0.6,5.7-0.9c1.9-0.4,3.7-0.9,5.6-1.4c1.8-0.6,3.6-1.3,5.4-1.9c7.1-2.9,13.7-7.1,19.2-12.3
			c1.4-1.3,2.7-2.7,4-4.1l3.6-4.4l3.1-4.7l2.7-5c3.3-6.8,5.3-14.1,6.1-21.5l0.5-4.8l5.2,1.1c6.4,1.3,13,1.7,19.4,1
			c6.5-0.5,12.7-2.2,18.6-4.5c5.9-2.3,11.4-5.7,16.4-9.5c5-3.9,9.3-8.6,13-13.7l4.4-6.1l5.5,4.9c5,4.4,10.7,8.1,16.8,10.8
			c6.1,2.7,12.7,4.4,19.4,5.1c6.7,0.7,13.5,0.3,20.2-1.1c6.6-1.4,13.1-3.9,19.1-7.4l4.4-2.5l2.1,4.1c2.2,4.3,5.1,8.3,8.3,12
			c3.2,3.7,6.9,7,11,9.9c1,0.7,2.1,1.4,3.1,2c1.1,0.6,2.1,1.3,3.3,1.9c1.1,0.5,2.2,1.2,3.4,1.7c1.2,0.5,2.3,1,3.5,1.5
			c1.2,0.4,2.4,0.9,3.6,1.3c1.2,0.3,2.4,0.8,3.7,1.1c1.3,0.3,2.5,0.6,3.8,0.9C388.6,225.6,390,225.9,391.4,226.2z"/>
	</g>
	<g id="sauce-3_1_">
		<path class="st12" d="M302.6,206.3c-17.4,0-33.2-6.4-45.3-17c-12.4,17.9-33.1,29.7-56.6,29.7c-6.1,0-11.9-0.8-17.6-2.3
			c-0.7,4.5-1.8,8.9-3.3,13.1c5.2-1.1,10.7-1.8,16.4-1.9c48.7-0.5,90.2,29.9,107.6,22.7c17.4-7.2,36-34.5,45.3-41.1
			c0.5-0.3,1-0.7,1.5-1c-4-4-7.4-8.5-10.2-13.5C329.6,202.1,316.6,206.3,302.6,206.3z"/>
		<path d="M302.6,206.7c-4.2,0-8.3-0.3-12.4-1c-4.1-0.6-8.2-1.6-12.2-2.8c-1-0.3-2-0.7-3-1c-1-0.3-2-0.8-3-1.1
			c-1-0.4-1.9-0.8-2.9-1.2c-1-0.4-1.9-0.9-2.9-1.4c-3.8-1.9-7.4-4.2-10.9-6.8l4.3-0.5c-3.8,6.2-8.6,12-14.4,16.7
			c-1.5,1.1-2.9,2.3-4.5,3.3c-0.8,0.5-1.5,1.1-2.3,1.5l-2.4,1.4c-0.8,0.5-1.6,0.9-2.5,1.3l-2.5,1.2l-2.6,1.1l-1.3,0.5
			c-0.4,0.2-0.9,0.3-1.3,0.4c-7,2.4-14.4,3.7-21.8,3.6c-7.3,0-14.6-1.2-21.5-3.4l2.4-1.6c-0.9,4.5-2.2,9-3.9,13.3l-1.7-1.9
			c4-0.8,8-1.3,12-1.6c2-0.1,4-0.2,6.1-0.2l3,0l3,0.1c8.1,0.2,16.1,1.2,24,2.5c7.9,1.4,15.8,3.2,23.6,5.4c7.7,2.2,15.3,4.8,22.8,7.3
			c3.7,1.2,7.5,2.4,11.2,3.4c3.7,1,7.4,1.7,10.8,1.9c1.7,0,3.3,0,4.6-0.4c0.4,0,0.6-0.2,0.9-0.3l0.4-0.2c0.2-0.1,0.4-0.2,0.6-0.3
			l2.3-1.1c3.1-1.8,6-4,8.9-6.4c5.7-4.9,11.2-10.5,16.6-16.2c2.7-2.9,5.5-5.8,8.4-8.6c0.7-0.7,1.4-1.4,2.2-2.1
			c0.8-0.7,1.5-1.4,2.3-2.1c0.8-0.7,1.6-1.4,2.6-2c0.9-0.7,1.9-1.3,2.9-1.8l-0.7,5.5c-3.9-4.5-7.2-9.5-9.7-14.8l3.2,0.8
			c-3,1.7-6.1,3.1-9.3,4.4c-3.2,1.3-6.4,2.3-9.7,3.1c-3.3,0.8-6.6,1.4-10,1.8C309.3,206.6,306,206.8,302.6,206.7z M302.6,205.8
			c3.3,0,6.6-0.3,9.9-0.9c3.3-0.6,6.5-1.4,9.6-2.5c3.1-1.1,6.1-2.5,9-4c2.9-1.6,5.6-3.4,8.1-5.4l1.8-1.4l1.5,2.2
			c3.1,4.5,6.7,8.6,10.7,12.1l3,2.7l-3.7,2.8l-1,0.8c-0.3,0.2-0.6,0.6-1,0.8c-0.6,0.5-1.3,1.2-1.9,1.9c-0.6,0.6-1.3,1.4-1.9,2.1
			c-0.6,0.7-1.3,1.4-1.9,2.2c-2.5,2.9-5.1,6-7.7,9c-5.3,6-10.8,12.1-17.1,17.5c-3.2,2.7-6.7,5.2-10.6,7.4c-1,0.5-2,1-3.1,1.5
			c-0.3,0.1-0.5,0.2-0.8,0.4l-1,0.3c-0.6,0.2-1.3,0.4-1.9,0.5c-2.6,0.6-5,0.5-7.3,0.4c-4.5-0.4-8.7-1.4-12.6-2.6
			c-4-1.2-7.8-2.6-11.5-4c-3.8-1.4-7.5-2.8-11.2-4.3L249,241c-3.7-1.4-7.4-2.7-11.1-4c-3.7-1.3-7.5-2.4-11.3-3.4
			c-3.8-1-7.6-1.9-11.5-2.6c-1.9-0.4-3.9-0.6-5.8-0.9c-2-0.2-3.9-0.5-5.9-0.6c-1-0.1-2-0.2-2.9-0.2l-2.9-0.1c-2-0.1-3.9,0-5.9,0.1
			c-3.9,0.3-7.8,0.9-11.6,1.8l-2.5,0.6l0.8-2.5c1.4-4.2,2.4-8.5,2.8-12.9l0.2-2.1l2.2,0.5c6.7,1.4,13.5,1.7,20.2,0.9
			c6.7-0.6,13.2-2.4,19.3-4.8c6.2-2.4,11.9-5.7,17.3-9.6c0.7-0.5,1.3-1,2-1.5c0.6-0.5,1.3-1,2-1.5c1.2-1.1,2.5-2.1,3.7-3.3
			c2.5-2.3,4.7-4.8,6.8-7.4l2.2-2.6l2.1,2.1c2.8,2.8,5.8,5.4,9.1,7.7c0.8,0.6,1.7,1.1,2.5,1.7c0.9,0.5,1.7,1.1,2.6,1.6
			c1.8,1,3.6,1.9,5.4,2.7c3.7,1.7,7.6,2.9,11.6,3.8C294.4,205.4,298.5,205.8,302.6,205.8z"/>
	</g>
	<g id="outline-3_1_">
		<path d="M390.5,227.7c-1.3,0-2.4,0.1-3.6,0.1c-1.3-0.1-2.6-0.2-3.9-0.3c-1.3-0.2-2.6-0.4-4-0.6c-1.3-0.3-2.6-0.6-3.9-0.9
			c-1.3-0.3-2.6-0.8-3.9-1.1c-1.3-0.4-2.5-0.9-3.8-1.4c-1.3-0.5-2.5-1.1-3.7-1.7c-1.2-0.6-2.4-1.3-3.6-1.9
			c-4.8-2.7-9.2-5.9-13.2-9.8c-4-3.8-7.5-8.2-10.5-12.9l6.6,1.6c-6.5,4.6-13.8,8.2-21.5,10.5c-7.7,2.3-15.9,3.2-24,2.8
			c-4.1-0.2-8.1-0.7-12.1-1.6c-4-0.9-7.9-2.1-11.7-3.6c-7.6-3-14.7-7.4-20.9-12.7l9.9-1.2c-2.2,3.1-4.6,6.2-7.3,9
			c-1.3,1.4-2.7,2.7-4.1,4c-0.7,0.7-1.5,1.2-2.2,1.9c-0.8,0.6-1.5,1.3-2.3,1.8c-1.6,1.1-3.1,2.3-4.7,3.3c-0.8,0.5-1.6,1-2.4,1.5
			l-2.5,1.4c-0.8,0.5-1.7,0.9-2.6,1.3l-2.6,1.2l-2.7,1.1c-0.9,0.4-1.8,0.7-2.7,1l-2.7,0.9c-0.9,0.3-1.8,0.5-2.8,0.7
			c-1.8,0.5-3.7,0.8-5.6,1.2c-0.9,0.2-1.9,0.3-2.8,0.4l-2.8,0.3l-2.8,0.2c-0.9,0.1-1.9,0.1-2.8,0.1c-7.6,0.1-15.1-1.1-22.3-3.3
			l5.7-3.7c-1.6,8.3-4.8,16.3-9,23.4c-4.3,7.2-9.8,13.5-16,18.9c-1.6,1.3-3.2,2.6-4.9,3.8c-1.7,1.1-3.4,2.3-5.2,3.4
			c-1.8,1-3.6,2-5.4,2.9c-1.9,0.8-3.7,1.7-5.6,2.5c-1.9,0.7-3.9,1.4-5.8,2c-2,0.5-4,1.1-6,1.5c-2,0.3-4,0.7-6.1,1l-6.1,0.5l2.3-2.6
			c1.2,9.2,3.4,18.2,6.6,26.8l1.2,3.2l1.4,3.2c0.5,1.1,0.9,2.1,1.4,3.2l1.5,3.1c2,4.1,4.4,8.1,6.8,12c9.8,15.4,22.9,28.5,37.6,38.9
			c7.4,5.1,15.2,9.6,23.4,13.2c8.2,3.6,16.7,6.4,25.4,8.3c8.7,1.9,17.6,2.9,26.5,3c8.9,0.1,17.8-0.7,26.5-2.2
			c17.4-3.1,34.2-9.7,49.3-19.2c3.8-2.4,7.4-5,10.9-7.7c1.8-1.3,3.5-2.8,5.2-4.2c1.7-1.4,3.3-3,5-4.5c6.5-6.1,12.3-13,17.6-20.3
			c5.2-7.3,9.7-15.2,13.4-23.4c3.8-8.2,6.6-16.9,8.7-25.8c2.1-8.9,3.2-18,3.6-27.3c0.1-4.6,0.1-9.3-0.1-13.9c-0.1-2.3-0.3-4.6-0.6-7
			c-0.1-1.2-0.2-2.3-0.4-3.5l-0.2-1.7C390.4,228.7,390.5,228.2,390.5,227.7z M391.4,226.6c0.3,0.6,0.5,1.3,0.8,2.1l0.5,1.8
			c0.3,1.1,0.6,2.3,0.9,3.4c0.6,2.3,1.1,4.6,1.6,7c0.9,4.7,1.6,9.4,2,14.2c0.1,1.2,0.2,2.4,0.2,3.6l0.1,3.6l0.1,3.6l-0.1,3.6
			l-0.1,3.6l-0.3,3.6l-0.3,3.6l-0.5,3.6c-1.2,9.6-3.6,19.1-6.9,28.4c-3.3,9.2-7.7,18.1-12.8,26.5c-1.3,2.1-2.7,4.1-4,6.2
			c-1.4,2-2.9,4-4.4,5.9c-1.5,1.9-3.1,3.8-4.7,5.7c-1.7,1.8-3.3,3.7-5,5.5c-1.8,1.7-3.5,3.5-5.3,5.2c-1.8,1.6-3.6,3.4-5.5,4.9
			c-3.8,3.2-7.8,6.2-11.9,9c-8.2,5.6-17.1,10.2-26.3,14c-9.2,3.7-18.9,6.4-28.7,8.1c-9.8,1.7-19.8,2.2-29.7,1.8
			c-9.9-0.4-19.8-1.8-29.4-4.2c-9.6-2.4-18.9-5.9-27.8-10.2c-8.9-4.4-17.3-9.6-25-15.6c-7.7-6.1-14.7-13-20.9-20.5
			c-6.2-7.5-11.7-15.6-16.2-24.2c-2.2-4.3-4.3-8.7-6.1-13.1l-1.4-3.3c-0.5-1.1-0.8-2.3-1.2-3.4L122,307l-1.1-3.5
			c-2.8-9.2-4.7-18.6-5.8-28.1l-0.3-2.5l2.5-0.2l5.7-0.4c1.9-0.3,3.8-0.6,5.7-0.9c1.9-0.4,3.7-0.9,5.6-1.4c1.8-0.6,3.6-1.3,5.4-1.9
			c1.8-0.7,3.5-1.6,5.2-2.4c1.7-0.9,3.3-1.9,5-2.9c1.6-1.1,3.1-2.2,4.7-3.3c1.5-1.2,2.9-2.5,4.4-3.7c1.4-1.3,2.7-2.7,4-4.1l3.6-4.4
			l3.1-4.7l2.7-5c3.3-6.8,5.3-14.1,6.1-21.5l0.5-4.8l5.2,1.1c6.4,1.3,13,1.7,19.4,1c6.5-0.5,12.7-2.2,18.6-4.5
			c5.9-2.3,11.4-5.7,16.4-9.6c5-3.9,9.3-8.6,13-13.7l4.4-6.1l5.5,4.9c5,4.5,10.8,8.1,17,10.8c6.2,2.7,12.8,4.4,19.6,5
			c6.8,0.7,13.7,0.2,20.4-1.3c6.7-1.5,13.2-4.1,19.2-7.7l4.5-2.7l2.1,4.2c2.2,4.3,4.9,8.4,8,12.1c3.2,3.7,6.8,7.1,10.8,10
			c1,0.7,2,1.4,3.1,2.1c1.1,0.6,2.1,1.3,3.2,1.9c1.1,0.6,2.2,1.2,3.3,1.8c1.1,0.5,2.3,1.1,3.4,1.6c1.2,0.4,2.3,0.9,3.5,1.4l3.6,1.2
			c1.2,0.3,2.4,0.7,3.7,1C388.7,225.9,390.1,226.3,391.4,226.6z"/>
	</g>
	<polygon id="scorch-3_1_" class="st11" points="294.8,282.5 328.8,338.1 368.5,272.9 336.2,378.1 308.4,387 278.7,397.5 
		188.9,345.8 255.5,361.5 231.3,304.4 278.7,339.5 	"/>
	<g id="sauce-highlight-3_1_">
		<path class="st2" d="M243.5,223.3c1.7,0.2,3.2-0.3,4.6-1c1.3-0.7,2.6-1.7,3.7-2.7c1.1-1.1,2.2-2.2,3.2-3.4c1-1.2,2-2.5,2.7-3.7
			l1.6-2.4l2.6,2.3l0.6,0.5c0.2,0.2,0.4,0.4,0.6,0.6c0.4,0.4,0.9,0.7,1.4,1.1c0.9,0.7,1.9,1.3,2.9,1.9c2,1.1,4.1,1.9,6.3,2.4
			c2.2,0.5,4.5,0.6,6.9,0.4c2.4-0.2,4.9-0.8,7.6-1.5c-1.7,2.1-4,3.9-6.6,5c-2.6,1.2-5.6,1.7-8.6,1.5c-3-0.2-5.9-1.2-8.5-2.7
			c-1.3-0.7-2.5-1.6-3.6-2.6c-0.6-0.5-1.1-1-1.6-1.5c-0.5-0.6-0.9-1-1.5-1.8l4.2-0.1c-1.2,1.4-2.4,2.6-3.8,3.8
			c-1.3,1.1-2.8,2.2-4.4,3.1c-1.6,0.9-3.3,1.6-5.1,1.8C246.8,224.5,244.9,224.2,243.5,223.3z"/>
	</g>
</g>
<g id="takoyaki-3">
	<g id="shadow-3">
		<ellipse class="st9" cx="256.2" cy="393.3" rx="107.6" ry="24.5"/>
		<path d="M363.6,393.3c0-2.4-1.6-4.4-3.3-5.9c-1.8-1.6-3.8-2.8-5.9-3.8c-4.2-2.1-8.8-3.7-13.3-5c-4.6-1.3-9.2-2.3-13.9-3.2
			c-4.7-0.9-9.4-1.6-14.1-2.2c-9.4-1.2-18.9-1.8-28.4-2.2c-9.5-0.4-19-0.4-28.5-0.2c-19,0.4-37.9,1.9-56.6,4.9
			c-9.3,1.5-18.6,3.4-27.4,6c-4.4,1.3-8.8,2.9-12.7,4.9c-1.9,1-3.8,2.1-5.2,3.4c-0.7,0.6-1.3,1.3-1.6,1.9c-0.4,0.6-0.5,1.1-0.5,1.5
			c0,0.4,0.1,0.9,0.5,1.5c0.4,0.6,0.9,1.3,1.6,1.9c1.4,1.3,3.3,2.4,5.2,3.4c3.9,2,8.3,3.6,12.7,4.9c8.9,2.7,18.1,4.5,27.4,6
			c18.6,3,37.6,4.5,56.6,4.9c9.5,0.2,19,0.1,28.5-0.2c9.5-0.4,19-1,28.4-2.3c4.7-0.6,9.4-1.3,14.1-2.2c4.7-0.9,9.3-1.9,13.9-3.2
			c4.6-1.3,9.1-2.9,13.3-5c2.1-1.1,4.2-2.3,5.9-3.8C362.1,397.7,363.6,395.6,363.6,393.3z M364,393.3c0,1.2-0.4,2.4-1,3.5
			c-0.6,1-1.5,1.9-2.4,2.8c-1.8,1.6-3.9,2.8-6,3.9c-4.3,2.2-8.8,3.7-13.4,5.1c-9.2,2.7-18.6,4.4-28,5.8c-18.9,2.7-38,3.7-57,3.8
			c-19.1,0-38.2-1-57-3.7c-9.4-1.4-18.8-3.1-28-5.7c-4.6-1.4-9.1-2.9-13.4-5.1c-2.1-1.1-4.2-2.3-6-4c-0.9-0.8-1.7-1.7-2.4-2.8
			c-0.7-1.1-1.1-2.3-1.1-3.6c0-1.3,0.4-2.5,1.1-3.6c0.6-1.1,1.5-2,2.4-2.8c1.8-1.6,3.9-2.9,6-4c4.3-2.2,8.8-3.7,13.4-5.1
			c9.2-2.7,18.6-4.4,28-5.7c18.9-2.6,38-3.7,57-3.7c19.1,0,38.1,1.1,57,3.8c9.4,1.4,18.8,3.1,28,5.8c4.6,1.4,9.1,2.9,13.4,5.1
			c2.1,1.1,4.2,2.3,6,3.9c0.9,0.8,1.7,1.7,2.4,2.8C363.6,390.8,364,392.1,364,393.3z"/>
	</g>
	<g id="bun-3">
		<path class="st10" d="M332.3,173.3c-15.4-3-28.8-11.5-38.1-23.4c-9,4.9-19.3,7.6-30.3,7.6c-22.8,0-42.7-12-54-29.9
			c-54.1,19-92.8,70.6-92.8,131.1c0,76.8,62.2,139,139,139s139-62.2,139-139c0-10.9-1.3-21.5-3.6-31.7
			C361.4,225.4,336.8,202.6,332.3,173.3z"/>
		<path d="M331.8,173.8c-0.9-0.1-1.7-0.1-2.5-0.2l-2.8-0.5l-2.8-0.7l-2.8-0.8c-3.7-1.2-7.4-2.7-10.9-4.6c-3.5-1.9-6.8-4.1-9.9-6.6
			c-3.1-2.5-6-5.3-8.6-8.4l4.6,1c-7.3,4.3-15.4,7.3-23.9,8.6c-2.1,0.3-4.3,0.5-6.4,0.7l-1.6,0.1l-1.6,0c-1.1,0-2.2,0-3.2,0
			c-4.3-0.2-8.6-0.8-12.9-1.7c-4.2-1-8.4-2.4-12.3-4.2c-4-1.8-7.8-4-11.4-6.5c-3.5-2.6-6.9-5.4-9.9-8.6c-3-3.2-5.7-6.7-8.1-10.3
			l7.6,2.7c-6,2.2-11.8,4.8-17.4,7.8c-5.6,3-11,6.4-16.1,10.1c-10.3,7.4-19.6,16.2-27.7,26c-4.1,4.9-7.8,10.1-11.2,15.6
			c-3.4,5.4-6.4,11.1-9,17.1c-2.6,5.9-4.8,12-6.5,18.3c-1.7,6.3-2.9,12.7-3.7,19.2c-1.5,13-0.8,26.2,1.8,39.1l1.1,4.8
			c0.3,1.6,0.9,3.2,1.3,4.7c0.8,3.2,2,6.2,3,9.3c1.3,3,2.4,6.1,3.8,9.1c1.3,3,2.9,5.8,4.5,8.7c3.3,5.7,6.8,11.2,10.9,16.3
			c4.1,5.1,8.4,9.9,13.2,14.4c4.8,4.4,9.8,8.5,15.1,12.2c5.3,3.6,10.9,7,16.6,9.9c23,11.5,48.9,16.4,74.1,14.1
			c1.6-0.2,3.2-0.2,4.7-0.5l4.7-0.7c1.6-0.2,3.1-0.6,4.7-0.9l2.3-0.5c0.8-0.2,1.5-0.4,2.3-0.6c6.2-1.4,12.2-3.4,18-5.6l4.4-1.8
			l4.3-2c1.4-0.6,2.8-1.4,4.2-2.1c1.4-0.8,2.8-1.4,4.1-2.3c5.5-3.1,10.7-6.6,15.7-10.4c19.9-15.3,35.6-36.1,44.7-59.7
			c2.3-5.9,4.1-12,5.5-18.1c0.6-3.1,1.3-6.2,1.7-9.3l0.4-2.4c0.1-0.8,0.2-1.6,0.3-2.4l0.5-4.7c1.2-12.7,0.4-25.6-2-38.2l4.7,4
			c-7.8-0.7-15.4-2.7-22.4-6c-7-3.3-13.3-7.7-18.7-13.1c-5.4-5.4-9.8-11.6-12.9-18.4c-0.7-1.7-1.5-3.4-2.1-5.2
			c-0.6-1.8-1.2-3.5-1.7-5.3l-1.2-5.4C332.1,177.3,332,175.6,331.8,173.8z M332.9,172.8c0.5,1.8,1.1,3.6,1.6,5.5l1.8,5l2.2,4.8
			c0.8,1.5,1.7,3.1,2.6,4.6c3.7,5.9,8.3,11.2,13.6,15.5c5.3,4.3,11.3,7.8,17.6,10c6.3,2.3,13,3.6,19.6,3.7l3.7,0.1l1.1,3.9
			c7.3,26.7,6.4,55.8-2.7,82.4c-4.5,13.3-11,25.9-19.3,37.4c-1,1.5-2.1,2.8-3.2,4.2l-1.6,2.1c-0.5,0.7-1.1,1.3-1.7,2
			c-1.2,1.3-2.3,2.7-3.5,4l-3.6,3.8c-1.2,1.3-2.5,2.5-3.8,3.7l-1.9,1.8c-0.6,0.6-1.3,1.2-2,1.7c-1.3,1.1-2.6,2.3-4,3.4l-4.2,3.2
			c-22.5,17-50.1,27-78.1,28.6c-3.5,0.3-7,0.2-10.5,0.3c-1.7,0-3.5-0.1-5.2-0.2l-2.6-0.1l-2.6-0.2c-7-0.5-13.9-1.8-20.7-3.3
			l-5.1-1.3c-1.7-0.5-3.3-1-5-1.5c-0.8-0.3-1.7-0.5-2.5-0.8l-2.4-0.9c-1.6-0.6-3.3-1.2-4.9-1.9c-6.5-2.6-12.6-5.8-18.6-9.3
			c-5.9-3.6-11.6-7.6-17-11.8c-5.3-4.4-10.3-9.1-15-14.1c-4.6-5-8.9-10.4-12.9-15.9c-3.9-5.6-7.4-11.4-10.6-17.4
			c-1.5-3.1-3-6.1-4.3-9.2c-1.4-3.1-2.6-6.3-3.8-9.4c-2.2-6.4-4.1-12.9-5.5-19.5c-2.7-13.3-3.9-26.9-3.2-40.5
			c0.3-6.8,1.1-13.6,2.4-20.3c1.3-6.7,3-13.4,5.2-19.9c2.2-6.5,4.9-12.9,8.1-19.1c3.2-6.2,6.8-12.1,10.9-17.7
			c8.2-11.3,18.2-21.2,29.5-29.5c5.6-4.1,11.6-7.8,17.8-11c6.2-3.2,12.7-5.9,19.3-8.2l4.9-1.7l2.7,4.3c1.9,3.1,4.1,5.9,6.4,8.7
			c2.4,2.7,5.1,5.1,7.9,7.4c2.9,2.2,5.9,4.1,9.2,5.8c3.2,1.6,6.6,3,10.1,4.1c3.5,1,7.1,1.7,10.8,2.1c0.9,0.1,1.8,0.1,2.8,0.2
			l1.4,0.1l1.4,0c1.8,0,3.7,0,5.5-0.2c7.4-0.5,14.8-2.5,21.6-5.8l2.9-1.4l1.7,2.4c2.1,2.9,4.4,5.7,6.9,8.3c2.6,2.6,5.4,4.9,8.4,7
			c3,2.1,6.2,4,9.6,5.6l2.5,1.2l2.6,1l2.7,0.9C330.9,172.1,331.9,172.4,332.9,172.8z"/>
	</g>
	<g id="sauce-3">
		<path class="st12" d="M333.7,173.8c-15.4-3-28.8-11.5-38.1-23.4c-9,4.9-19.3,7.6-30.3,7.6c-23.1,0-43.3-12.3-54.4-30.7
			c-99.7,31.5-93.2,146.1-93.2,146.1s30.6-44.8,79.2-45.3c48.7-0.5,90.2,29.9,107.6,22.7c17.4-7.2,36-34.5,45.3-41.1
			c0.5-0.3,1-0.7,1.5-1C342.1,199.4,335.8,187.3,333.7,173.8z"/>
		<path d="M333.4,174.1c-0.9-0.1-1.8-0.2-2.6-0.3l-2.8-0.6l-2.8-0.7l-2.8-0.9c-3.7-1.2-7.3-2.8-10.7-4.7c-3.4-1.9-6.7-4.1-9.7-6.6
			c-3-2.5-5.8-5.3-8.4-8.4l3.3,0.7c-7.2,4.3-15.4,7-23.8,8.2c-8.4,1.2-17,0.6-25.3-1.4c-4.1-1.1-8.2-2.6-12-4.4
			c-3.8-1.9-7.5-4.1-11-6.6c-3.4-2.6-6.6-5.4-9.5-8.6c-2.9-3.2-5.4-6.7-7.6-10.3l4.6,1.7c-1.8,0.6-3.6,1.2-5.4,1.8
			c-1.8,0.6-3.6,1.1-5.3,1.9l-5.2,2.2c-0.4,0.2-0.9,0.3-1.3,0.5l-1.3,0.6l-2.6,1.2c-6.9,3.2-13.3,7.2-19.5,11.6
			c-12.3,8.9-22.8,20.5-30.7,33.7c-4,6.6-7.4,13.5-10.1,20.7c-2.7,7.2-5,14.6-6.6,22.1c-1.7,7.5-2.8,15.2-3.4,22.8
			c-0.3,3.8-0.5,7.7-0.6,11.5c-0.1,3.8,0,7.7,0.2,11.4l-5.1-1.4c1.7-2.5,3.4-4.7,5.2-7c1.8-2.2,3.7-4.4,5.6-6.5
			c3.9-4.2,8.1-8.2,12.5-11.9c8.9-7.3,19-13.4,30-17.5c5.5-2,11.2-3.6,17.1-4.5c5.8-0.9,11.8-1.1,17.6-0.9
			c5.8,0.2,11.6,0.8,17.3,1.7c5.7,0.9,11.3,2.2,16.9,3.6c11.1,2.9,21.8,6.8,32.3,10.7c5.2,2,10.4,3.8,15.6,5.5
			c2.6,0.8,5.1,1.5,7.7,2c2.5,0.5,5,0.7,7.1,0.5c0.5-0.1,1-0.2,1.5-0.2l0.7-0.2c0.2-0.1,0.4-0.1,0.7-0.3l1.7-0.8
			c0.6-0.2,1.1-0.5,1.7-0.8c2.2-1.2,4.4-2.7,6.6-4.3c4.3-3.2,8.3-6.9,12.2-10.8c3.9-3.9,7.8-7.9,11.7-12c2-2,3.9-4.1,6-6
			c1-1,2.2-2,3.3-2.9l1.8-1.4c0.6-0.5,1.3-0.8,2-1.2l-0.5,3.6c-2.3-2.5-4.5-5.2-6.3-8.1c-1.9-2.9-3.5-5.9-4.9-9
			c-1.4-3.1-2.5-6.3-3.4-9.6c-0.2-0.8-0.4-1.6-0.6-2.5l-0.5-2.5l-0.4-2.5C333.5,175.6,333.4,174.9,333.4,174.1z M334,173.4
			c0.2,0.8,0.5,1.7,0.7,2.6l0.7,2.4l0.7,2.3l0.8,2.3c1.2,3.1,2.6,6,4.1,8.8c3.2,5.7,7.2,10.8,11.9,15.2l1.9,1.8l-2.4,1.8
			c-0.5,0.4-1,0.7-1.5,1.1l-1.4,1.2c-0.9,1-1.9,1.9-2.8,2.9c-1.8,2-3.7,4.1-5.5,6.2c-3.6,4.2-7.2,8.6-11.1,12.8
			c-3.9,4.2-7.9,8.3-12.4,12c-2.3,1.9-4.7,3.7-7.3,5.2c-0.6,0.4-1.3,0.8-2,1.1l-2.1,1c-0.3,0.2-0.8,0.3-1.2,0.5l-1.3,0.4
			c-0.9,0.2-1.7,0.4-2.6,0.5c-3.4,0.5-6.6,0.2-9.6-0.3c-3-0.5-5.9-1.2-8.7-1.9c-5.6-1.5-11-3.4-16.3-5.2c-10.6-3.7-21-7.3-31.6-10.2
			c-5.3-1.4-10.6-2.6-16-3.6c-5.3-0.9-10.7-1.6-16.1-1.9c-5.4-0.3-10.7-0.2-15.9,0.5c-5.3,0.7-10.4,1.9-15.5,3.6
			c-10.1,3.5-19.6,8.8-28.3,15.4c-4.4,3.3-8.5,6.8-12.4,10.6c-2,1.9-3.9,3.9-5.7,5.9c-1.8,2-3.6,4.1-5.2,6.2l-5,6.6l-0.1-8
			c-0.1-4.1,0.2-8,0.5-11.9c0.3-3.9,0.8-7.8,1.3-11.7c1.1-7.8,2.6-15.5,4.5-23.1c3.9-15.2,9.4-30,17.2-43.7
			c7.6-13.7,17.6-26.3,29.7-36.6c1.5-1.4,3.1-2.5,4.7-3.7l2.4-1.8c0.8-0.6,1.6-1.2,2.4-1.7l5-3.3l1.3-0.8l1.3-0.7l2.6-1.4
			c6.9-4,14.4-6.9,22-9.6l2.9-1l1.8,2.8c2,3.2,4.3,6.2,6.8,9.1c2.6,2.8,5.3,5.4,8.3,7.7c3,2.3,6.2,4.3,9.6,6c3.4,1.7,7,3,10.6,4.1
			c3.7,1,7.4,1.8,11.2,2.1c0.9,0.1,1.9,0.1,2.9,0.2c1,0.1,1.9,0.1,2.9,0.1c1.9,0,3.8-0.1,5.7-0.3c7.6-0.6,15.1-2.8,22.1-6.2l2.1-1
			l1.2,1.7c2.1,3,4.5,5.7,7.2,8.3c2.6,2.6,5.5,4.9,8.6,7c3.1,2.1,6.3,3.9,9.7,5.5l2.6,1.1l2.6,1l2.7,0.9
			C332.1,172.8,333.1,173.1,334,173.4z"/>
	</g>
	<path id="sauce-highlight-3" class="st13" d="M222.9,143c-5.8,1.6-11.4,3.6-16.9,6c-14.8,6.7-28.1,16.8-38.5,29.2
		c-10.3,12.4-17.8,27.1-20.9,42.5c4-6.8,8.1-13.3,12.7-19.3c4.6-6,9.6-11.6,15-16.8c10.8-10.3,23.2-18.6,36.6-24.7
		c8-3.6,16.4-6.4,25-8.4C231.3,149.2,226.9,146.3,222.9,143z"/>
	<g id="outline-3">
		<path d="M333.1,174.3c-0.9-0.1-1.7-0.1-2.5-0.2l-2.8-0.5l-2.8-0.7l-2.8-0.8c-3.7-1.2-7.4-2.7-10.9-4.6c-3.5-1.9-6.8-4.1-9.9-6.6
			c-3.1-2.5-6-5.3-8.6-8.4l4.6,1c-7.3,4.4-15.6,7.4-24.1,8.7c-2.1,0.3-4.3,0.5-6.5,0.6c-1.1,0.1-2.2,0.1-3.3,0.1c-1.1,0-2.2,0-3.3,0
			c-4.4-0.2-8.7-0.9-13-1.8c-4.3-1.1-8.4-2.5-12.4-4.4c-4-1.9-7.8-4.1-11.4-6.7c-3.5-2.6-6.9-5.6-9.9-8.8c-3-3.3-5.7-6.8-8.1-10.6
			l7.6,2.8c-6,2.2-11.8,4.8-17.4,7.7c-5.6,3-11,6.3-16.2,10c-10.3,7.4-19.7,16.1-27.9,25.8c-4.1,4.9-7.9,10.1-11.3,15.5
			c-3.4,5.4-6.5,11.1-9.1,17c-5.3,11.8-8.9,24.4-10.4,37.4c-0.3,3.2-0.7,6.5-0.8,9.8c-0.1,1.6-0.1,3.3-0.1,4.9c0,1.6,0,3.3,0.1,4.9
			c0.3,6.6,1.1,13.1,2.3,19.5c0.7,3.2,1.4,6.4,2.3,9.6c0.5,1.6,0.9,3.2,1.4,4.7l1.6,4.7c2.3,6.1,5,12.1,8.2,17.8
			c6.4,11.5,14.5,21.8,24,30.8c4.8,4.4,9.7,8.6,15.1,12.3c5.3,3.7,10.8,7.1,16.6,9.9c22.9,11.6,48.8,16.6,74.1,14.5
			c12.6-1,25-4,36.8-8.5c5.9-2.3,11.5-5.1,17-8.1c5.5-3.1,10.7-6.6,15.7-10.4c20-15.2,35.8-36,44.9-59.6c2.3-5.9,4.1-12,5.6-18.1
			l1-4.7c0.2-0.8,0.3-1.6,0.5-2.3l0.4-2.4c0.2-1.6,0.5-3.1,0.7-4.7l0.5-4.7c1.2-12.7,0.5-25.6-1.9-38.2l4.6,3.9
			c-7.6-0.9-15.1-3-21.9-6.3c-6.8-3.3-13-7.8-18.3-13.1c-5.2-5.4-9.5-11.5-12.6-18.2c-0.7-1.7-1.4-3.4-2.1-5.1
			c-0.5-1.7-1.1-3.5-1.6-5.2l-1.1-5.3C333.4,177.7,333.3,176,333.1,174.3z M334.2,173.2c0.5,1.7,1.1,3.6,1.6,5.5l1.8,4.9l2.1,4.7
			c0.8,1.5,1.7,3,2.5,4.5c3.6,5.9,8.1,11.1,13.3,15.4c5.2,4.3,11,7.8,17.2,10.1c6.2,2.3,12.7,3.7,19.3,4l3.6,0.1l1,3.8
			c3.6,13.4,5.2,27.3,4.7,41.3c-0.2,7-1,13.9-2.2,20.8c-1.3,6.9-3.1,13.7-5.3,20.3c-2.3,6.6-5.1,13.1-8.3,19.4
			c-3.3,6.2-6.9,12.3-11.1,18c-1,1.4-2.1,2.8-3.2,4.2l-1.6,2.1l-1.7,2c-1.2,1.3-2.3,2.7-3.5,4l-3.6,3.8c-1.2,1.3-2.5,2.5-3.8,3.7
			l-1.9,1.8l-2,1.7c-1.3,1.1-2.6,2.4-4,3.4l-4.2,3.3c-22.6,17-50.3,26.9-78.3,28.3l-2.6,0.2l-2.6,0c-1.8,0-3.5,0-5.3,0
			c-3.5-0.2-7-0.2-10.5-0.6c-7-0.6-13.9-1.8-20.7-3.4l-5.1-1.3l-5-1.6c-1.7-0.5-3.3-1.1-4.9-1.7c-1.6-0.6-3.3-1.2-4.9-1.9
			c-6.5-2.6-12.6-5.8-18.6-9.4c-6-3.5-11.6-7.6-16.9-11.9l-3.9-3.3c-1.3-1.1-2.5-2.3-3.8-3.5c-0.6-0.6-1.3-1.2-1.9-1.8l-1.8-1.8
			c-1.2-1.2-2.4-2.4-3.6-3.7l-3.4-3.8c-1.1-1.3-2.2-2.7-3.2-4c-0.5-0.7-1.1-1.3-1.6-2l-1.5-2.1c-1-1.4-2.1-2.7-3-4.1l-2.8-4.2
			c-0.9-1.4-1.8-2.9-2.7-4.4c-0.4-0.7-0.9-1.4-1.3-2.2l-1.2-2.2c-0.8-1.5-1.7-3-2.4-4.5l-2.2-4.6c-0.7-1.5-1.4-3.1-2-4.7l-1-2.3
			l-0.9-2.4c-0.6-1.6-1.3-3.2-1.8-4.8c-2.3-6.4-4-13-5.4-19.6c-0.6-3.3-1.3-6.7-1.7-10c-0.5-3.4-0.8-6.7-1.1-10.1
			c-0.5-6.8-0.6-13.6-0.2-20.4c0.3-6.8,1.2-13.6,2.5-20.3c1.3-6.7,3.1-13.4,5.3-19.9c2.3-6.5,5-12.9,8.2-19
			c3.2-6.1,6.9-12.1,11-17.7c8.3-11.2,18.3-21.2,29.7-29.3c5.7-4.1,11.7-7.7,17.9-10.9c6.2-3.2,12.7-5.9,19.3-8.1l5-1.7l2.6,4.4
			c1.9,3.1,4,6,6.4,8.8c2.4,2.7,5.1,5.2,7.9,7.5c2.9,2.2,6,4.2,9.2,6c3.3,1.7,6.7,3.1,10.2,4.2c7.1,2.1,14.6,3,22,2.4
			c7.5-0.5,14.9-2.5,21.8-5.8l2.9-1.4l1.7,2.4c2.1,2.9,4.4,5.7,6.9,8.3c2.6,2.6,5.4,4.9,8.4,7c3,2.1,6.2,4,9.6,5.6l2.5,1.2l2.6,1
			l2.7,0.9C332.2,172.5,333.3,172.9,334.2,173.2z"/>
	</g>
	<g id="seed-3-2">
		<path class="st14" d="M210.1,142.5c-10.4,10.6-18.2,8.4-20.3-4.4c-2.1-12.7,20.3-23.3,20.3-23.3S218.4,134,210.1,142.5z"/>
		<path d="M210.3,142.6c-1.8,1.8-3.7,3.7-5.8,5.3c-1.1,0.8-2.2,1.6-3.6,2.1c-1.3,0.5-2.9,0.8-4.5,0.5c-0.8-0.1-1.6-0.4-2.3-0.8
			c-0.7-0.4-1.4-0.9-1.9-1.4c-1.1-1.1-1.9-2.4-2.4-3.7c-0.5-1.3-0.9-2.7-1.1-4c-0.1-0.7-0.2-1.3-0.2-2c-0.1-0.7,0-1.5,0-2.2
			c0.3-2.9,1.6-5.3,3.1-7.6c1.5-2.2,3.2-4.2,5-6.2c1.8-1.9,3.8-3.8,5.9-5.3c2.2-1.6,4.4-3,6.8-4.3l1.8-1l0.9,2
			c1.1,2.4,1.9,4.7,2.5,7.2c0.6,2.4,1,5,1,7.5c0,2.6-0.5,5.1-1.3,7.6c-0.4,1.2-1,2.4-1.6,3.4C211.9,140.7,211.1,141.7,210.3,142.6z
			 M210,142.3c1.7-1.7,2.5-4.1,2.6-6.4c0.1-2.3-0.3-4.6-0.7-6.9c-0.5-2.3-0.9-4.5-1.6-6.8c-0.6-2.2-1.3-4.5-2.1-6.6l2.7,1
			c-2.2,1-4.5,2.2-6.7,3.4c-2.2,1.2-4.4,2.5-6.4,4c-2,1.5-3.9,3.3-5.3,5.4c-1.4,2.1-2.1,4.6-1.8,6.9c0.1,0.6,0.2,1.1,0.4,1.7
			c0.2,0.6,0.3,1.2,0.5,1.8c0.4,1.2,0.8,2.3,1.3,3.3c1,2.1,2.3,3.7,4.1,4.4c1.8,0.7,4.4,0.3,6.7-0.7
			C206.1,145.8,208.2,144.2,210,142.3z"/>
	</g>
	<g id="seed-3-3">
		<path class="st14" d="M260.2,193.7c-5.8,13.7-13.9,14.5-20.5,3.4C233,186.1,250,168,250,168S264.8,182.8,260.2,193.7z"/>
		<path d="M260.3,193.8c-1,2.4-2.1,4.8-3.4,7.1c-0.7,1.2-1.5,2.3-2.6,3.3c-1,1-2.4,1.8-4,2.2c-0.8,0.2-1.6,0.2-2.4,0.1
			c-0.8-0.1-1.6-0.3-2.3-0.7c-1.4-0.6-2.6-1.6-3.6-2.6c-1-1-1.8-2.2-2.5-3.4c-0.4-0.6-0.7-1.2-1-1.8c-0.3-0.6-0.6-1.3-0.8-2
			c-0.7-2.8-0.4-5.6,0.1-8.2c0.5-2.6,1.4-5.1,2.4-7.6c1-2.5,2.1-4.9,3.5-7.1c1.4-2.3,3-4.4,4.7-6.5l1.3-1.6l1.6,1.5
			c1.9,1.8,3.5,3.7,5,5.7c1.4,2.1,2.8,4.2,3.7,6.6c0.9,2.4,1.5,5,1.5,7.5c0.1,1.3,0,2.5-0.2,3.8
			C261.2,191.5,260.8,192.7,260.3,193.8z M260,193.6c0.9-2.2,0.8-4.7,0.1-6.9c-0.7-2.2-2-4.2-3.2-6.2c-1.3-1.9-2.5-3.9-4-5.7
			c-1.4-1.8-2.9-3.7-4.4-5.4l2.9,0c-1.7,1.7-3.4,3.7-4.9,5.6c-1.6,2-3.2,3.9-4.5,6.1c-1.4,2.1-2.4,4.5-3,6.9
			c-0.5,2.4-0.3,5.1,0.9,7.1c0.3,0.5,0.6,1,1,1.4c0.4,0.5,0.8,1,1.1,1.4c0.8,0.9,1.6,1.8,2.5,2.6c1.7,1.6,3.5,2.6,5.5,2.6
			c2,0,4.2-1.3,5.9-3.1C257.6,198.2,259,196,260,193.6z"/>
	</g>
	<g id="seed-3-1">
		<path class="st14" d="M144.6,193.5c-12.1,8.6-19.4,5.1-19.3-7.8c0.1-12.9,24-19.4,24-19.4S154.2,186.7,144.6,193.5z"/>
		<path d="M144.7,193.7c-2.1,1.5-4.2,3-6.6,4.2c-1.2,0.6-2.5,1.1-3.9,1.4c-1.4,0.3-3,0.3-4.5-0.2c-0.8-0.3-1.5-0.7-2.1-1.2
			c-0.6-0.5-1.2-1.1-1.6-1.8c-0.9-1.3-1.4-2.7-1.7-4.1c-0.3-1.4-0.4-2.8-0.4-4.2c0-0.7,0.1-1.4,0.1-2c0.1-0.7,0.2-1.4,0.4-2.1
			c0.8-2.8,2.5-5,4.3-6.9c1.8-1.9,3.9-3.6,6-5.2c2.1-1.6,4.4-3,6.7-4.2c2.4-1.2,4.8-2.2,7.4-3l2-0.6l0.6,2.1
			c0.7,2.5,1.1,4.9,1.2,7.5c0.2,2.5,0.1,5.1-0.3,7.6c-0.4,2.5-1.4,5-2.6,7.2c-0.6,1.1-1.4,2.2-2.2,3.1
			C146.6,192.1,145.7,193,144.7,193.7z M144.5,193.4c1.9-1.4,3.2-3.6,3.7-5.9c0.6-2.3,0.5-4.6,0.5-6.9c-0.1-2.3-0.1-4.6-0.4-6.9
			c-0.2-2.3-0.5-4.7-0.9-6.9l2.5,1.5c-2.3,0.6-4.8,1.4-7.1,2.2c-2.4,0.8-4.8,1.7-7,2.8c-2.3,1.1-4.4,2.5-6.1,4.4
			c-1.7,1.8-2.9,4.2-3,6.5c0,0.6,0,1.1,0.1,1.7c0.1,0.6,0.1,1.2,0.2,1.8c0.2,1.2,0.4,2.4,0.7,3.5c0.6,2.2,1.6,4.1,3.3,5
			c1.7,1,4.3,1,6.7,0.4C140,196.1,142.4,194.9,144.5,193.4z"/>
	</g>
	<polygon id="scorch-3" class="st11" points="295.5,282.8 329.5,338.4 369.2,273.2 336.9,378.4 309.1,387.3 279.4,397.8 
		189.6,346.1 256.2,361.8 232,304.7 279.4,339.8 	"/>
</g>
<g id="takoyaki-4">
	<g id="shadow-4">
		<ellipse class="st9" cx="256" cy="393" rx="107.6" ry="24.5"/>
		<path d="M363.4,393c0-2.4-1.6-4.4-3.3-5.9c-1.8-1.6-3.8-2.8-5.9-3.8c-4.2-2.1-8.8-3.7-13.3-5c-4.6-1.3-9.2-2.3-13.9-3.2
			c-4.7-0.9-9.4-1.6-14.1-2.2c-9.4-1.2-18.9-1.8-28.4-2.2c-9.5-0.4-19-0.4-28.5-0.2c-19,0.4-37.9,1.9-56.6,4.9
			c-9.3,1.5-18.6,3.4-27.4,6c-4.4,1.3-8.8,2.9-12.7,4.9c-1.9,1-3.8,2.1-5.2,3.4c-0.7,0.6-1.3,1.3-1.6,1.9c-0.4,0.6-0.5,1.1-0.5,1.5
			c0,0.4,0.1,0.9,0.5,1.5c0.4,0.6,0.9,1.3,1.6,1.9c1.4,1.3,3.3,2.4,5.2,3.4c3.9,2,8.3,3.6,12.7,4.9c8.9,2.7,18.1,4.5,27.4,6
			c18.6,3,37.6,4.5,56.6,4.9c9.5,0.2,19,0.1,28.5-0.2c9.5-0.4,19-1,28.4-2.3c4.7-0.6,9.4-1.3,14.1-2.2c4.7-0.9,9.3-1.9,13.9-3.2
			c4.6-1.3,9.1-2.9,13.3-5c2.1-1.1,4.2-2.3,5.9-3.8C361.9,397.4,363.4,395.4,363.4,393z M363.8,393c0,1.2-0.4,2.4-1,3.5
			c-0.6,1-1.5,1.9-2.4,2.8c-1.8,1.6-3.9,2.8-6,3.9c-4.3,2.2-8.8,3.7-13.4,5.1c-9.2,2.7-18.6,4.4-28,5.8c-18.9,2.7-38,3.7-57,3.8
			c-19.1,0-38.2-1-57-3.7c-9.4-1.4-18.8-3.1-28-5.7c-4.6-1.4-9.1-2.9-13.4-5.1c-2.1-1.1-4.2-2.3-6-4c-0.9-0.8-1.7-1.7-2.4-2.8
			c-0.7-1.1-1.1-2.3-1.1-3.6c0-1.3,0.4-2.5,1.1-3.6c0.6-1.1,1.5-2,2.4-2.8c1.8-1.6,3.9-2.9,6-4c4.3-2.2,8.8-3.7,13.4-5.1
			c9.2-2.7,18.6-4.4,28-5.7c18.9-2.6,38-3.7,57-3.7c19.1,0,38.1,1.1,57,3.8c9.4,1.4,18.8,3.1,28,5.8c4.6,1.4,9.1,2.9,13.4,5.1
			c2.1,1.1,4.2,2.3,6,3.9c0.9,0.8,1.7,1.7,2.4,2.8C363.4,390.6,363.8,391.8,363.8,393z"/>
	</g>
	<g id="bun-4">
		<circle class="st10" cx="256" cy="258.5" r="139"/>
		<path d="M395.8,258.5c-0.1,18.3-3.2,36.6-9.6,53.9c-3.2,8.7-7.1,17.1-11.9,25.1c-4.8,8-10.3,15.6-16.6,22.6
			c-6.4,6.9-13.4,13.4-21.1,18.9c-2,1.3-3.9,2.7-5.9,4c-2,1.2-4,2.5-6.1,3.7c-2.1,1.1-4.2,2.3-6.3,3.3l-3.2,1.5
			c-1.1,0.5-2.1,1-3.3,1.5c-17.5,7.5-36.7,11.2-55.7,10.7c-9.5-0.3-19-1.5-28.2-3.7c-9.2-2.2-18.1-5.3-26.6-9.3
			c-17-7.9-32.3-19-45.2-32.3c-12.9-13.3-23.4-28.8-30.8-45.8c-0.9-2.1-1.8-4.3-2.6-6.4c-0.8-2.2-1.6-4.4-2.3-6.6
			c-0.7-2.2-1.4-4.4-2-6.7c-0.6-2.3-1.2-4.5-1.7-6.8c-2-9.1-3.3-18.4-3.6-27.7c-0.3-9.4,0.2-18.8,1.7-28.1c0.4-2.3,0.9-4.6,1.3-7
			c0.5-2.3,1.1-4.6,1.6-6.9c0.6-2.3,1.4-4.5,2-6.8c0.7-2.3,1.6-4.5,2.4-6.7c6.8-17.8,17.4-34.1,30.7-47.8c6.7-6.9,14-13.1,21.9-18.5
			c7.9-5.4,16.4-10.1,25.2-13.9c17.7-7.6,37-11.4,56.2-11.3c19.2,0.1,38.4,4.1,56,11.9c17.6,7.7,33.2,19.3,45.8,33.3
			c6.3,7,11.8,14.7,16.6,22.7c4.8,8,8.7,16.5,11.9,25.2C392.6,221.9,395.8,240.2,395.8,258.5z M394.2,258.5
			c0-18.1-4.1-36.2-11.7-52.4c-7.6-16.3-18.7-30.7-31.8-42.3c-13.1-11.7-28.3-20.7-44.3-27c-8-3.1-16.3-5.5-24.8-7
			c-8.5-1.5-17-2.3-25.6-2.2c-17.2,0.1-34.2,3.4-50.2,9.8c-15.9,6.4-30.6,15.9-43.1,27.9c-12.4,12-22.5,26.5-29.6,42.4
			c-0.8,2-1.8,4-2.5,6c-0.7,2-1.6,4.1-2.2,6.1c-0.6,2.1-1.4,4.1-2,6.2c-0.6,2.1-1.2,4.2-1.7,6.3c-2,8.5-3.2,17.3-3.6,26.1
			c-0.3,8.8,0.2,17.7,1.7,26.5c0.3,2.2,0.8,4.4,1.3,6.6c0.5,2.2,1.1,4.3,1.6,6.5c0.6,2.2,1.3,4.3,2,6.4c0.7,2.1,1.5,4.2,2.3,6.3
			c6.5,16.6,16.7,31.9,29.5,44.4c12.8,12.5,28.4,22,45,28c8.3,3,16.9,5.2,25.5,6.5c8.7,1.4,17.4,1.9,26.1,1.6
			c34.8-0.9,68.6-14.4,94.9-37.8c6.5-5.9,12.6-12.4,17.9-19.5c5.4-7.1,10-14.8,13.8-22.9C390.3,294.7,394.3,276.6,394.2,258.5z"/>
	</g>
	<g id="sauce-4">
		<path class="st12" d="M117.5,273.2c0,0,30.6-44.8,79.2-45.3c48.7-0.5,90.2,29.9,107.6,22.7s36-34.5,45.3-41.1s31.7-10.1,31.7-10.1
			s-45.4-101.1-158.1-75.7S117.5,273.2,117.5,273.2z"/>
		<path d="M117.6,272.8c-0.1-0.1-0.3-0.1-0.4,0c0,0,0-0.1,0.1-0.1l0.2-0.3l0.3-0.5l0.7-1c0.4-0.7,0.9-1.3,1.3-1.9
			c0.9-1.3,1.8-2.6,2.8-3.8c2-2.5,4-4.9,6.1-7.2c4.3-4.7,8.9-9,14-13c5-3.9,10.4-7.5,16.1-10.5c5.7-3,11.7-5.4,18-7.2
			c6.3-1.8,12.8-2.7,19.3-3c6.5-0.2,12.9,0.1,19.3,0.9c12.8,1.6,25.2,4.9,37.2,8.9c6,2,11.9,4.3,17.7,6.5c5.9,2.2,11.6,4.4,17.4,6.1
			c2.9,0.8,5.8,1.5,8.6,1.8c0.7,0.1,1.4,0.1,2.1,0.1c0.7,0,1.3,0,2-0.1l0.9-0.1l0.5-0.1l0.4-0.1l0.9-0.3c0.3-0.1,0.7-0.3,1-0.4
			c5.3-2.2,10.3-5.9,14.9-9.9c4.6-4,9.1-8.4,13.3-13l6.4-6.8c2.2-2.3,4.3-4.6,6.7-6.8c1.2-1.1,2.4-2.2,3.8-3.1
			c1.4-0.9,2.8-1.7,4.3-2.4c2.9-1.4,5.9-2.4,9-3.4c6.1-1.9,12.2-3.2,18.5-4.4l-1.1,2.1c-3.5-7.1-8-13.9-12.8-20.3
			c-4.8-6.4-10.2-12.4-16-17.9c-11.5-11.1-24.8-20.2-39.1-26.6c-3.6-1.7-7.3-3-10.9-4.4l-5.6-1.8c-0.9-0.3-1.9-0.6-2.8-0.8l-2.9-0.7
			l-2.9-0.7l-2.9-0.5c-1.9-0.3-3.9-0.7-5.8-1l-5.8-0.7l-1.5-0.2c-0.5,0-1-0.1-1.5-0.1l-2.9-0.1l-2.9-0.1l-1.5-0.1l-1.5,0l-5.9,0.1
			l-1.5,0l-1.5,0.1l-2.9,0.2l-2.9,0.2c-1,0.1-2,0.1-2.9,0.3l-5.9,0.8l-2.9,0.4l-2.9,0.6l-5.8,1.1c-1,0.2-1.9,0.4-2.9,0.7l-2.9,0.8
			c-1.9,0.5-3.8,1-5.7,1.5l-5.6,1.9l-2.8,0.9c-0.9,0.3-1.8,0.7-2.7,1.1l-5.4,2.2c-7.1,3.3-14,6.9-20.4,11.4l-2.4,1.7
			c-0.8,0.5-1.5,1.2-2.3,1.8l-4.6,3.6c-2.9,2.6-5.9,5.2-8.5,8.1l-2,2.1c-0.7,0.7-1.3,1.5-1.9,2.2c-1.3,1.5-2.6,3-3.8,4.5l-3.5,4.7
			c-1.2,1.6-2.2,3.3-3.3,4.9c-4.3,6.6-8,13.6-11.3,20.9c-3.2,7.3-5.8,14.8-8,22.5c-2.2,7.7-3.9,15.6-5.2,23.5c-0.6,4-1.2,8-1.5,12
			c-0.2,2-0.4,4-0.5,6c-0.1,1-0.1,2-0.2,3l-0.1,1.5l0,0.8l0,0.4c0,0,0,0-0.1-0.1C117.8,272.7,117.7,272.7,117.6,272.8z M117.4,273.6
			c-0.1-0.1-0.2-0.2-0.3-0.4c-0.1-0.1-0.1-0.4-0.1-0.4l0-0.4l-0.1-0.8l-0.1-1.5c0-1-0.1-2-0.1-3.1c-0.1-2-0.1-4.1-0.1-6.1
			c0-4.1,0.2-8.2,0.5-12.3c0.6-8.2,1.8-16.3,3.5-24.4c1.7-8.1,4-16,6.9-23.8c2.9-7.8,6.6-15.3,10.8-22.4c1.1-1.8,2.1-3.6,3.3-5.3
			l3.6-5.2c1.2-1.7,2.6-3.3,3.9-4.9c0.7-0.8,1.3-1.7,2-2.4l2.1-2.3c2.7-3.2,5.8-6,8.9-9c1.6-1.4,3.2-2.7,4.8-4.1
			c0.8-0.7,1.6-1.4,2.5-2l2.6-1.8l2.6-1.8c0.9-0.6,1.7-1.3,2.6-1.8l5.4-3.3c1.8-1.2,3.7-2,5.6-3l2.8-1.4c0.9-0.5,1.9-1,2.8-1.4
			l5.8-2.5c1-0.4,1.9-0.8,2.9-1.2l3-1l6-2c2-0.6,4-1.1,6.1-1.6c16.1-4.2,32.9-6,49.7-4.8l3.1,0.2c0.5,0,1,0.1,1.6,0.1l1.6,0.2
			l6.2,0.9c2.1,0.3,4.1,0.8,6.2,1.2l3.1,0.6l3,0.8l3,0.8c1,0.3,2,0.5,3,0.9l5.9,2c3.9,1.6,7.8,3.1,11.5,5
			c7.5,3.7,14.6,8.1,21.2,13.1c6.6,5,12.7,10.7,18.3,16.7c5.6,6,10.7,12.5,15.4,19.3c2.4,3.4,4.5,6.8,6.6,10.4
			c2.1,3.5,4.1,7.1,5.8,10.9l0.8,1.8l-2,0.3c-6.1,0.9-12.2,2.3-18.1,4c-3,0.9-5.9,1.9-8.6,3.2c-1.4,0.7-2.7,1.4-3.9,2.2
			c-1.2,0.8-2.3,1.8-3.4,2.9c-2.2,2.1-4.3,4.4-6.4,6.8l-6.2,7.1c-4.2,4.7-8.3,9.5-12.9,13.9c-4.6,4.4-9.5,8.7-15.6,11.8
			c-0.4,0.2-0.7,0.4-1.1,0.6l-1.3,0.5c-0.2,0.1-0.4,0.2-0.7,0.2l-0.7,0.2l-1.4,0.3c-0.9,0.1-1.8,0.2-2.7,0.3c-0.9,0-1.8,0.1-2.6,0
			c-3.4-0.1-6.7-0.7-9.9-1.4c-6.3-1.5-12.4-3.4-18.3-5.5c-5.9-2-11.8-4-17.7-6c-11.8-3.8-23.6-7.2-35.7-8.9
			c-6-0.8-12.1-1.4-18.2-1.4c-6,0-12,0.8-17.8,2.1c-11.8,2.7-22.9,8-33.1,14.9c-2.5,1.8-5,3.5-7.5,5.5c-2.4,1.9-4.8,3.9-7.1,6
			c-2.3,2.1-4.5,4.2-6.7,6.5c-1.1,1.1-2.2,2.2-3.2,3.4c-0.5,0.6-1,1.2-1.5,1.8l-0.8,0.9l-0.4,0.5l-0.2,0.2l-0.1,0.1
			C117.8,273.5,117.5,273.6,117.4,273.6z"/>
	</g>
	<g id="outline-4">
		<path d="M395.8,258.5c-0.1,18.3-3.2,36.6-9.6,53.9c-3.2,8.7-7.1,17.1-11.9,25.1c-4.8,8-10.3,15.6-16.6,22.6
			c-6.4,6.9-13.4,13.4-21.1,18.9c-2,1.3-3.9,2.7-5.9,4c-2,1.2-4,2.5-6.1,3.7c-2.1,1.1-4.2,2.3-6.3,3.3l-3.2,1.5
			c-1.1,0.5-2.1,1-3.3,1.5c-17.5,7.5-36.7,11.2-55.7,10.7c-9.5-0.3-19-1.5-28.2-3.7c-9.2-2.2-18.1-5.3-26.6-9.3
			c-17-7.9-32.3-19-45.2-32.3c-12.9-13.3-23.4-28.8-30.8-45.8c-0.9-2.1-1.8-4.3-2.6-6.4c-0.8-2.2-1.6-4.4-2.3-6.6
			c-0.7-2.2-1.4-4.4-2-6.7c-0.6-2.3-1.2-4.5-1.7-6.8c-2-9.1-3.3-18.4-3.6-27.7c-0.3-9.4,0.2-18.8,1.7-28.1c0.4-2.3,0.9-4.6,1.3-7
			c0.5-2.3,1.1-4.6,1.6-6.9c0.6-2.3,1.4-4.5,2-6.8c0.7-2.3,1.6-4.5,2.4-6.7c6.8-17.8,17.4-34.1,30.7-47.8c6.7-6.9,14-13.1,21.9-18.5
			c7.9-5.4,16.4-10.1,25.2-13.9c17.7-7.6,37-11.4,56.2-11.3c19.2,0.1,38.4,4.1,56,11.9c17.6,7.7,33.2,19.3,45.8,33.3
			c6.3,7,11.8,14.7,16.6,22.7c4.8,8,8.7,16.5,11.9,25.2C392.6,221.9,395.8,240.2,395.8,258.5z M394.2,258.5
			c0-18.1-4.1-36.2-11.7-52.4c-7.6-16.3-18.7-30.7-31.8-42.3c-13.1-11.7-28.3-20.7-44.3-27c-8-3.1-16.3-5.5-24.8-7
			c-8.5-1.5-17-2.3-25.6-2.2c-17.2,0.1-34.2,3.4-50.2,9.8c-15.9,6.4-30.6,15.9-43.1,27.9c-12.4,12-22.5,26.5-29.6,42.4
			c-0.8,2-1.8,4-2.5,6c-0.7,2-1.6,4.1-2.2,6.1c-0.6,2.1-1.4,4.1-2,6.2c-0.6,2.1-1.2,4.2-1.7,6.3c-2,8.5-3.2,17.3-3.6,26.1
			c-0.3,8.8,0.2,17.7,1.7,26.5c0.3,2.2,0.8,4.4,1.3,6.6c0.5,2.2,1.1,4.3,1.6,6.5c0.6,2.2,1.3,4.3,2,6.4c0.7,2.1,1.5,4.2,2.3,6.3
			c6.5,16.6,16.7,31.9,29.5,44.4c12.8,12.5,28.4,22,45,28c8.3,3,16.9,5.2,25.5,6.5c8.7,1.4,17.4,1.9,26.1,1.6
			c34.8-0.9,68.6-14.4,94.9-37.8c6.5-5.9,12.6-12.4,17.9-19.5c5.4-7.1,10-14.8,13.8-22.9C390.3,294.7,394.3,276.6,394.2,258.5z"/>
	</g>
	<g id="sauce-highlight-4">
		<path class="st13" d="M146.4,220.4c3.1-15.4,10.6-30.1,20.9-42.5c10.4-12.4,23.7-22.4,38.5-29.2c14.8-6.7,31.2-10.1,47.3-9.8
			c16.1,0.4,32.1,4.4,45.7,12.3c-7.7-1.5-15.3-2.6-22.9-3.1c-7.6-0.5-15.1-0.4-22.5,0.3c-14.8,1.4-29.3,5.2-42.7,11.3
			c-13.4,6.1-25.8,14.4-36.6,24.7c-5.4,5.1-10.4,10.7-15,16.8C154.5,207.1,150.4,213.6,146.4,220.4z"/>
	</g>
	<g id="seed-4-2">
		<path class="st14" d="M209.9,142.2c-10.4,10.6-18.2,8.4-20.3-4.4s20.3-23.3,20.3-23.3S218.2,133.7,209.9,142.2z"/>
		<path d="M210.1,142.3c-1.8,1.8-3.7,3.7-5.8,5.3c-1.1,0.8-2.2,1.6-3.6,2.1c-1.3,0.5-2.9,0.8-4.5,0.5c-0.8-0.1-1.6-0.4-2.3-0.8
			c-0.7-0.4-1.4-0.9-1.9-1.4c-1.1-1.1-1.9-2.4-2.4-3.7c-0.5-1.3-0.9-2.7-1.1-4c-0.1-0.7-0.2-1.3-0.2-2c-0.1-0.7,0-1.5,0-2.2
			c0.3-2.9,1.6-5.3,3.1-7.6c1.5-2.2,3.2-4.2,5-6.2c1.8-1.9,3.8-3.8,5.9-5.3c2.2-1.6,4.4-3,6.8-4.3l1.8-1l0.9,2
			c1.1,2.4,1.9,4.7,2.5,7.2c0.6,2.4,1,5,1,7.5c0,2.6-0.5,5.1-1.3,7.6c-0.4,1.2-1,2.4-1.6,3.4C211.7,140.4,210.9,141.4,210.1,142.3z
			 M209.8,142c1.7-1.7,2.5-4.1,2.6-6.4c0.1-2.3-0.3-4.6-0.7-6.9c-0.5-2.3-0.9-4.5-1.6-6.8c-0.6-2.2-1.3-4.5-2.1-6.6l2.7,1
			c-2.2,1-4.5,2.2-6.7,3.4c-2.2,1.2-4.4,2.5-6.4,4c-2,1.5-3.9,3.3-5.3,5.4c-1.4,2.1-2.1,4.6-1.8,6.9c0.1,0.6,0.2,1.1,0.4,1.7
			c0.2,0.6,0.3,1.2,0.5,1.8c0.4,1.2,0.8,2.3,1.3,3.3c1,2.1,2.3,3.7,4.1,4.4c1.8,0.7,4.4,0.3,6.7-0.7
			C205.9,145.5,208,143.9,209.8,142z"/>
	</g>
	<g id="seed-4-3">
		<path class="st14" d="M259.9,193.4c-5.8,13.7-13.9,14.5-20.5,3.4c-6.6-11,10.3-29.1,10.3-29.1S264.6,182.5,259.9,193.4z"/>
		<path d="M260.1,193.5c-1,2.4-2.1,4.8-3.4,7.1c-0.7,1.2-1.5,2.3-2.6,3.3c-1,1-2.4,1.8-4,2.2c-0.8,0.2-1.6,0.2-2.4,0.1
			c-0.8-0.1-1.6-0.3-2.3-0.7c-1.4-0.6-2.6-1.6-3.6-2.6c-1-1-1.8-2.2-2.5-3.4c-0.4-0.6-0.7-1.2-1-1.8c-0.3-0.6-0.6-1.3-0.8-2
			c-0.7-2.8-0.4-5.6,0.1-8.2c0.5-2.6,1.4-5.1,2.4-7.6c1-2.5,2.1-4.9,3.5-7.1c1.4-2.3,3-4.4,4.7-6.5l1.3-1.6l1.6,1.5
			c1.9,1.8,3.5,3.7,5,5.7c1.4,2.1,2.8,4.2,3.7,6.6c0.9,2.4,1.5,5,1.5,7.5c0.1,1.3,0,2.5-0.2,3.8
			C260.9,191.2,260.6,192.4,260.1,193.5z M259.8,193.3c0.9-2.2,0.8-4.7,0.1-6.9c-0.7-2.2-2-4.2-3.2-6.2c-1.3-1.9-2.5-3.9-4-5.7
			c-1.4-1.8-2.9-3.7-4.4-5.4l2.9,0c-1.7,1.7-3.4,3.7-4.9,5.6c-1.6,2-3.2,3.9-4.5,6.1c-1.4,2.1-2.4,4.5-3,6.9
			c-0.5,2.4-0.3,5.1,0.9,7.1c0.3,0.5,0.6,1,1,1.4c0.4,0.5,0.8,1,1.1,1.4c0.8,0.9,1.6,1.8,2.5,2.6c1.7,1.6,3.5,2.6,5.5,2.6
			c2,0,4.2-1.3,5.9-3.1C257.4,197.9,258.8,195.7,259.8,193.3z"/>
	</g>
	<g id="seed-4-5">
		<path class="st14" d="M363.2,180.2c2.3,14.7-4.2,19.6-15.6,13.7c-11.4-5.9-6.5-30.2-6.5-30.2S361.4,168.5,363.2,180.2z"/>
		<path d="M363.4,180.2c0.4,2.6,0.8,5.1,0.8,7.8c0,1.3-0.1,2.7-0.5,4.1c-0.4,1.4-1.1,2.8-2.2,3.9c-0.6,0.6-1.3,1-2,1.4
			c-0.7,0.3-1.5,0.6-2.3,0.7c-1.6,0.2-3.1,0-4.4-0.3c-1.4-0.4-2.7-0.9-3.9-1.5c-0.6-0.3-1.2-0.7-1.8-1c-0.6-0.4-1.2-0.8-1.7-1.3
			c-2.1-2-3.3-4.5-4.2-7c-0.9-2.5-1.5-5.1-2-7.7c-0.5-2.6-0.8-5.3-0.7-7.9c0-2.7,0.2-5.3,0.6-8l0.3-2l2.1,0.5
			c2.5,0.6,4.9,1.3,7.2,2.3c2.3,1,4.6,2.2,6.6,3.7c2.1,1.5,3.9,3.5,5.3,5.6c0.7,1.1,1.3,2.2,1.8,3.3
			C362.8,177.8,363.2,179,363.4,180.2z M363,180.2c-0.4-2.4-1.8-4.5-3.6-5.9c-1.8-1.5-3.9-2.5-6-3.6c-2.1-1-4.2-1.9-6.4-2.8
			c-2.2-0.8-4.4-1.6-6.6-2.3l2.5-1.6c-0.5,2.4-0.9,4.9-1.2,7.4c-0.3,2.5-0.6,5-0.6,7.5c0,2.5,0.3,5.1,1.1,7.4
			c0.8,2.4,2.4,4.4,4.5,5.6c0.5,0.3,1,0.5,1.6,0.7c0.6,0.2,1.2,0.4,1.7,0.6c1.2,0.4,2.3,0.7,3.4,0.9c2.3,0.4,4.4,0.4,6-0.7
			c1.7-1,2.9-3.3,3.4-5.8C363.4,185.4,363.4,182.8,363,180.2z"/>
	</g>
	<g id="seed-4-4">
		<path class="st14" d="M292.2,150.6c-14-5.1-15.2-13.1-4.5-20.3c10.7-7.2,29.6,8.7,29.6,8.7S303.3,154.7,292.2,150.6z"/>
		<path d="M292.1,150.8c-2.4-0.9-4.9-1.8-7.2-3.1c-1.2-0.6-2.3-1.4-3.4-2.4c-1-1-1.9-2.3-2.4-3.9c-0.2-0.8-0.3-1.6-0.2-2.4
			c0.1-0.8,0.2-1.6,0.5-2.3c0.5-1.5,1.4-2.7,2.4-3.8c1-1.1,2.1-1.9,3.2-2.7c0.6-0.4,1.2-0.7,1.7-1.1c0.6-0.3,1.3-0.6,2-0.9
			c2.8-0.9,5.5-0.7,8.1-0.4c2.6,0.4,5.2,1.1,7.7,1.9c2.5,0.8,5,1.9,7.3,3.1c2.3,1.3,4.5,2.7,6.7,4.4l1.6,1.2l-1.4,1.7
			c-1.7,2-3.5,3.7-5.5,5.3c-2,1.6-4.1,3-6.4,4.1c-2.3,1.1-4.9,1.7-7.4,1.9c-1.3,0.1-2.5,0.1-3.8,0
			C294.5,151.5,293.3,151.2,292.1,150.8z M292.2,150.4c2.3,0.8,4.8,0.6,6.9-0.3c2.2-0.8,4.1-2.2,6-3.5c1.9-1.4,3.7-2.7,5.5-4.3
			c1.8-1.5,3.6-3.1,5.1-4.7l0.2,2.9c-1.8-1.6-3.9-3.2-5.9-4.6c-2-1.5-4.1-2.9-6.3-4.2c-2.2-1.2-4.6-2.2-7.1-2.6
			c-2.5-0.4-5.1,0-7,1.2c-0.5,0.3-0.9,0.7-1.4,1c-0.5,0.4-0.9,0.8-1.4,1.2c-0.9,0.8-1.7,1.7-2.4,2.6c-1.5,1.8-2.4,3.7-2.3,5.6
			c0.1,2,1.6,4.1,3.4,5.7C287.5,148.3,289.8,149.6,292.2,150.4z"/>
	</g>
	<g id="seed-4-1">
		<path class="st14" d="M144.4,193.2c-12.1,8.6-19.4,5.1-19.3-7.8c0.1-12.9,24-19.4,24-19.4S154,186.4,144.4,193.2z"/>
		<path d="M144.5,193.4c-2.1,1.5-4.2,3-6.6,4.2c-1.2,0.6-2.5,1.1-3.9,1.4c-1.4,0.3-3,0.3-4.5-0.2c-0.8-0.3-1.5-0.7-2.1-1.2
			c-0.6-0.5-1.2-1.1-1.6-1.8c-0.9-1.3-1.4-2.7-1.7-4.1c-0.3-1.4-0.4-2.8-0.4-4.2c0-0.7,0.1-1.4,0.1-2c0.1-0.7,0.2-1.4,0.4-2.1
			c0.8-2.8,2.5-5,4.3-6.9c1.8-1.9,3.9-3.6,6-5.2c2.1-1.6,4.4-3,6.7-4.2c2.4-1.2,4.8-2.2,7.4-3l2-0.6l0.6,2.1
			c0.7,2.5,1.1,4.9,1.2,7.5c0.2,2.5,0.1,5.1-0.3,7.6c-0.4,2.5-1.4,5-2.6,7.2c-0.6,1.1-1.4,2.2-2.2,3.1
			C146.4,191.8,145.5,192.7,144.5,193.4z M144.2,193.1c1.9-1.4,3.2-3.6,3.7-5.9c0.6-2.3,0.5-4.6,0.5-6.9c-0.1-2.3-0.1-4.6-0.4-6.9
			c-0.2-2.3-0.5-4.7-0.9-6.9l2.5,1.5c-2.3,0.6-4.8,1.4-7.1,2.2c-2.4,0.8-4.8,1.7-7,2.8c-2.3,1.1-4.4,2.5-6.1,4.4
			c-1.7,1.8-2.9,4.2-3,6.5c0,0.6,0,1.1,0.1,1.7c0.1,0.6,0.1,1.2,0.2,1.8c0.2,1.2,0.4,2.4,0.7,3.5c0.6,2.2,1.6,4.1,3.3,5
			c1.7,1,4.3,1,6.7,0.4C139.8,195.8,142.2,194.6,144.2,193.1z"/>
	</g>
	<polygon id="scorch-4" class="st11" points="295.3,282.5 329.3,338.1 369,272.9 336.7,378.1 308.9,387 279.2,397.5 189.4,345.8 
		256,361.5 231.8,304.4 279.2,339.5 	"/>
</g>
</svg>
